<?xml version="1.0" standalone="no"?>
<!DOCTYPE svg PUBLIC "-//W3C//DTD SVG 1.1//EN" "http://www.w3.org/Graphics/SVG/1.1/DTD/svg11.dtd">
<svg xmlns="http://www.w3.org/2000/svg">
<metadata>Originaly icon font from fontello.com</metadata>
<defs>
    <svg
        viewBox="-150 -350 1000 857.14288"
        id="comment">
        <path
            id="comment_path"
            d="m -150,7 q 0,97 67,179 66.999999,82 181.999999,130 Q 214,364 350,364 q 39,0 81,-4 110,97 257,135 27,8 63,12 10,1 17,-5 7,-6 10,-16 v -1 q 2,-2 0,-6 -2,-4 -1,-6 1,-2 -2,-5 l -4,-5 q 0,0 -4,-5 -4,-5 -4,-5 -4,-5 -17,-19 -13,-14 -20,-22 -7,-8 -17,-22 -10,-14 -18,-28 -8,-14 -15,-33 -7,-19 -15,-42 88,-50 138,-123 50,-73 51,-157 0,-73 -40,-139 -40,-66 -106,-114 -66,-48 -160,-76 -94,-28 -194,-28 -136,0 -251.000001,48 -115,48 -181.999999,130 -67,82 -67,179 z"
            fill="currentColor"/>
    </svg>
    <svg
        viewBox="-150 -400 1167 1000"
        id="kpi">
        <path
            d="M 848,-228 C 733,-343 595,-400 434,-400 c -162,0 -299,57 -413,171 -114,113 -171,251 -171,412 0,146 49,275 146,386 4,3 8,8 14,15 7,7 11,13 15,16 l 26,-26 2,-5 c 52,-49 109,-86 170,-112 66,-28 136,-42 211,-42 74,0 145,14 211,42 60,26 117,63 169,112 l 2,5 26,26 c 4,-3 9,-9 15,-16 6,-7 11,-12 14,-15 97,-111 146,-240 146,-386 0,-161 -56,-298 -169,-411 z M -66,394 c -25,-57 -39,-120 -42,-190 h 83 v -42 h -83 c 3,-69 17,-132 42,-190 20,-52 54,-104 101,-156 l 70,70 29,-28 h 3 l -71,-71 c 51,-46 103,-81 157,-104 57,-24 121,-38 192,-41 v 99 h 42 v -99 c 68,3 130,17 188,41 62,28 115,63 158,104 l -70,71 29,28 70,-70 c 47,52 81,104 102,156 24,58 38,122 41,193 h -83 v 42 h 83 c -3,67 -17,130 -41,187 -26,58 -57,106 -92,146 C 731,429 595,373 434,373 272,373 136,429 25,540 -10,500 -40,452 -66,394 Z m 208,-505 -5,3 195,218 c -16,21 -23,46 -23,73 0,35 12,65 36,89 24,24 54,36 89,36 22,0 46,-8 70,-23 l 34,31 28,-29 -31,-31 c 16,-21 24,-45 24,-73 0,-34 -13,-64 -37,-88 -24,-25 -54,-37 -88,-37 -25,0 -48,7 -71,21 z m 352,354 c -16,16 -36,24 -60,24 -25,0 -45,-8 -60,-24 -16,-15 -24,-35 -24,-60 0,-24 8,-44 24,-60 15,-15 35,-23 60,-23 24,0 44,8 60,23 15,16 23,36 23,60 0,25 -8,45 -23,60 z"
            fill="currentColor" />
    </svg>
    <svg
        id="announcements"
        viewBox="-150 -400 837.88177 986.44104">
        <path
            d="m 408,-210.55899 c 6,6 11,13 14,20 3,5 46,112.000002 46,112.000002 33,80.9999997 81,154 142,215.999998 l 30,30 c 63,64 64,166 2,228 -30,31 -70,48 -112,48 v 0 c -24,0 -47,-5 -68,-15 l -55,56 c -3,3 -7,5 -11,5 -4,0 -7,-2 -10,-4 l -79,79 c -14,15 -33,22 -53,22 -19,0 -38,-7 -53,-22 -29,-29 -29,-77 0,-107 l 79,-79 -11,-11 c -3,-3 -4,-6 -4,-11 0,-4 1,-7 4,-10 l 45,-45 c -44,-33 -92,-60 -142,-81 0,0 -107.000001,-43 -115.000001,-48 -9,-5 -16,-12 -16,-12 -58,-54 -19,-181.999998 84.000001,-285 103,-104 227,-142 283,-86 z m 27,623 c -6,-5 -12,-10 -18,-16 l -31,-32 c -5,-5 -10,-10 -15,-14 l -38,38 63,64 z m -149,131 78,-80 -29,-30 -79,79 c -8,9 -13,20 -13,32 v 0 c 0,7 5,12 12,12 11,0 22,-5 31,-13 z m -63,-64 c -14,14 -17,34 -9,51 3,-15 10,-28 21,-39 l 78,-80 -12,-11 z m 78,-123 10,11 37,-38 c -3,-3 -7,-6 -10,-9 z m -118,-164 c 84,35 160,85 224,150 l 32,32 c 24,25 56,38 91,38 v 0 c 34,0 66,-13 91,-38 50,-51 49,-134 -2,-185 l -30,-30 C 525,94.441012 474,18.441012 440,-66.558988 l -12,-30 c -13,54 -50,116 -105,171 -47,48.999998 -102,84.999998 -154,100.999998 -5,2 -10,4 -15,5 z M 302,-43.558988 c 0,1 -1,2 -1,3 -6,19 -19,38.9999997 -36,56 -19,19 -40,32 -58,38 l 44,44 c 17,-13 35,-28 51,-44 16,-17 31,-34 44,-52.0000003 z m -125,67 v 0 0 c 7,7 38,0 66,-29.0000003 14,-13.9999997 25,-29.9999997 29,-44.9999997 4,-10 4,-19 0,-23 -2,-1 -5,-2 -9,-2 -4,0 -9,0 -14,2 -14,5 -30,15 -44,29 -28,29 -36,60 -28,68 z M 61.999999,138.44101 c 4,4 5,5 11,8 6,4 12,5 12,5 20.000001,7 46.000001,5 75.000001,-5 21,-7 43,-17 65,-31 L 155,44.441012 v 0 c -23,-23 -11,-71 29,-110 17,-18 37,-31 56,-37.000002 22,-7 41,-5 53,8.000002 v 0 l 70,70 c 14,-22 25,-44 32,-66 9,-29.000002 11,-55.000002 5,-75.000002 0,0 -2,-7 -5,-11 -2,-4 -5,-9 -8,-12 -12,-12 -29,-17 -49,-17 -52,0 -127,38 -191,102 -88.000001,89.000002 -127.000001,200.000002 -85.000001,242 z"
            fill="var(--announcements-color2, currentColor)" />
        <path
            d="M -135,-39.558988 H 3.999998 c 8,0 15,7 15,15 0,9 -7,16 -15,16 H -135 c -8,0 -15,-7 -15,-16 0,-8 7,-15 15,-15 z M 66.999998,-103.55899 c -3,6.000002 -8,9.000002 -14,9.000002 -2,0 -4,0 -6,-1 L -107,-167.55899 c -7,-4 -10,-13 -7,-21 4,-7 13,-11 20,-7 l 153.999998,72 c 7,4 11,13 7,20 z m 54.000002,-58 c -3,3 -6,4 -10,4 -4,0 -9,-2 -12.000002,-6 l -113,-136 c -6,-7 -5,-17 1,-22 7,-5 16,-5 22,2 l 114.000002,137 c 5,6 4,16 -2,21 z m 64,-49 h -4 c -6,0 -13,-4 -14,-11 l -43,-159 c -2,-8 3,-16 11,-19 8,-2 17,3 19,11 l 42,159 c 2,8 -3,17 -11,19 z"
            fill="var(--announcements-color1, red)" />
    </svg>
</defs>
</svg>