<?xml version="1.0" standalone="no"?>
<!DOCTYPE svg PUBLIC "-//W3C//DTD SVG 1.1//EN" "http://www.w3.org/Graphics/SVG/1.1/DTD/svg11.dtd">
<svg xmlns="http://www.w3.org/2000/svg">
<metadata>Copyright (C) 2020 by original authors @ fontello.com</metadata>
<defs>
<svg id="comment" transform="rotate(180)" viewBox="-150 -350 1250 1250"><path fill="currentColor" d="M1000 350q0-97-67-179t-182-130-251-48q-39 0-81 4-110-97-257-135-27-8-63-12-10-1-17 5t-10 16v1q-2 2 0 6t1 6 2 5l4 5t4 5 4 5q4 5 17 19t20 22 17 22 18 28 15 33 15 42q-88 50-138 123t-51 157q0 73 40 139t106 114 160 76 194 28q136 0 251-48t182-130 67-179z" ></path></svg>

<svg id="play-circled2" transform="rotate(180)" viewBox="-150 -400 1500 1500"><path fill="currentColor" d="M0 350q0 207 147 354t353 146 354-146 146-354-146-354-354-146-353 146-147 354z m115 0q0-158 114-271t271-114 271 114 114 271-114 272-271 113-271-113-114-272z m260-250l0 500 375-250z" ></path></svg>

<svg id="kpi" transform="rotate(180)" viewBox="-150 -400 1500 1500"><path fill="currentColor" d="M169 678c115 115 253 172 414 172 162 0 299-57 413-171 114-113 171-251 171-412 0-146-49-275-146-386-4-3-8-8-14-15-7-7-11-13-15-16l-26 26-2 5c-52 49-109 86-170 112-66 28-136 42-211 42-74 0-145-14-211-42-60-26-117-63-169-112l-2-5-26-26c-4 3-9 9-15 16-6 7-11 12-14 15-97 111-146 240-146 386 0 161 56 298 169 411z m914-622c25 57 39 120 42 190h-83v42h83c-3 69-17 132-42 190-20 52-54 104-101 156l-70-70-29 28h-3l71 71c-51 46-103 81-157 104-57 24-121 38-192 41v-99h-42v99c-68-3-130-17-188-41-62-28-115-63-158-104l70-71-29-28-70 70c-47-52-81-104-102-156-24-58-38-122-41-193h83v-42h-83c3-67 17-130 41-187 26-58 57-106 92-146 111 111 247 167 408 167 162 0 298-56 409-167 35 40 65 88 91 146z m-208 505l5-3-195-218c16-21 23-46 23-73 0-35-12-65-36-89-24-24-54-36-89-36-22 0-46 8-70 23l-34-31-28 29 31 31c-16 21-24 45-24 73 0 34 13 64 37 88 24 25 54 37 88 37 25 0 48-7 71-21l221 190z m-352-354c16-16 36-24 60-24 25 0 45 8 60 24 16 15 24 35 24 60 0 24-8 44-24 60-15 15-35 23-60 23-24 0-44-8-60-23-15-16-23-36-23-60 0-25 8-45 23-60z" ></path></svg>

<svg id="announcements" transform="rotate(180)" viewBox="-150 -400 1500 1500"><path fill="currentColor" d="M280 660c-6-6-11-13-14-20-3-5-46-112-46-112-33-81-81-154-142-216l-30-30c-63-64-64-166-2-228 30-31 70-48 112-48l0 0c24 0 47 5 68 15l55-56c3-3 7-5 11-5 4 0 7 2 10 4l79-79c14-15 33-22 53-22 19 0 38 7 53 22 29 29 29 77 0 107l-79 79 11 11c3 3 4 6 4 11 0 4-1 7-4 10l-45 45c44 33 92 60 142 81 0 0 107 43 115 48 9 5 16 12 16 12 58 54 19 182-84 285-103 104-227 142-283 86z m-27-623c6 5 12 10 18 16l31 32c5 5 10 10 15 14l38-38-63-64-39 40z m149-131l-78 80 29 30 79-79c8-9 13-20 13-32l0 0c0-7-5-12-12-12-11 0-22 5-31 13z m63 64c14-14 17-34 9-51-3 15-10 28-21 39l-78 80 12 11 78-79z m-78 123l-10-11-37 38c3 3 7 6 10 9l37-36z m118 164c-84-35-160-85-224-150l-32-32c-24-25-56-38-91-38l0 0c-34 0-66 13-91 38-50 51-49 134 2 185l30 30c64 65 115 141 149 226l12 30c13-54 50-116 105-171 47-49 102-85 154-101 5-2 10-4 15-5l-29-12z m-119 236c0-1 1-2 1-3 6-19 19-39 36-56 19-19 40-32 58-38l-44-44c-17 13-35 28-51 44-16 17-31 34-44 52l44 45z m125-67l0 0 0 0c-7-7-38 0-66 29-14 14-25 30-29 45-4 10-4 19 0 23 2 1 5 2 9 2 4 0 9 0 14-2 14-5 30-15 44-29 28-29 36-60 28-68z m115-115c-4-4-5-5-11-8-6-4-12-5-12-5-20-7-46-5-75 5-21 7-43 17-65 31l70 71 0 0c23 23 11 71-29 110-17 18-37 31-56 37-22 7-41 5-53-8l0 0-70-70c-14 22-25 44-32 66-9 29-11 55-5 75 0 0 2 7 5 11 2 4 5 9 8 12 12 12 29 17 49 17 52 0 127-38 191-102 88-89 127-200 85-242z m197 178l-139 0c-8 0-15-7-15-15 0-9 7-16 15-16l139 0c8 0 15 7 15 16 0 8-7 15-15 15z m-202 64c3-6 8-9 14-9 2 0 4 0 6 1l154 72c7 4 10 13 7 21-4 7-13 11-20 7l-154-72c-7-4-11-13-7-20z m-54 58c3-3 6-4 10-4 4 0 9 2 12 6l113 136c6 7 5 17-1 22-7 5-16 5-22-2l-114-137c-5-6-4-16 2-21z m-64 49c1 0 2 0 4 0 6 0 13 4 14 11l43 159c2 8-3 16-11 19-8 2-17-3-19-11l-42-159c-2-8 3-17 11-19z" ></path></svg>

<svg id="comment-old" transform="rotate(180)" viewBox="-150 -400 1500 1500"><path fill="currentColor" d="M986 830l-893 0c-51 0-93-43-93-93l0-614c0-51 42-93 93-93l186 0 0-157 153 169 93 108c7 8 19 9 27 2 8-7 8-18 2-26l-83-96 515 0c51 0 93 42 93 93l0 614c0 50-42 93-93 93z m-502-279l-279 0c-11 0-19 8-19 18 0 11 8 19 19 19l279 0c10 0 18-8 18-19 0-10-8-18-18-18z m353-149l-632 0c-11 0-19 8-19 19 0 10 8 18 19 18l632 0c11 0 19-8 19-18 0-11-8-19-19-19z m0-149l-632 0c-11 0-19 8-19 19 0 10 8 18 19 18l632 0c11 0 19-8 19-18 0-11-8-19-19-19z" ></path></svg>

<svg id="camera" transform="rotate(180)" viewBox="-150 -400 1500 1500"><path fill="currentColor" d="M1076 663l-130 1-125 167c-8 11-21 17-34 17l-337 0c-14 0-26-6-33-16l-129-168-121-1c-92 0-167-67-167-149l0-484c0-83 75-151 167-151l909 0c92 0 167 68 167 151l0 484c0 82-75 149-167 149z m85-633c0-42-38-78-85-78l-909 0c-47 0-85 36-85 78l0 484c0 41 38 76 85 76l142 0c14 0 26 6 34 16l129 168 293 0 124-167c8-9 21-16 34-16l153-1c46 0 84-35 84-77l0-483 1 0 0 0z m-536 545c-161 0-290-117-290-261 0-143 130-260 290-260 160 0 290 117 290 260 0 144-130 261-290 261z m0-448c-115 0-208 84-208 187 0 103 93 187 208 187 115 0 208-84 208-187 0-103-93-187-208-187z m404 340c0-8-7-14-16-14-8 0-15 6-15 14 0 8 7 14 15 14 9 0 16-6 16-14z m-16 51c-31 0-56-23-56-51 0-28 25-51 56-51 32 0 57 23 57 51 0 28-25 51-57 51z m0-74c-14 0-25 11-25 23 0 12 12 23 25 23 14 0 26-11 26-23 0-12-11-23-26-23z" ></path></svg>

<svg id="close" transform="rotate(180)" viewBox="-150 -400 1500 1500"><path fill="currentColor" d="M579 342l387 387c24 24 24 63 0 87-24 24-63 24-87 0l-387-387-387 387c-24 24-63 24-87 0-24-24-24-63 0-87l387-387-387-387c-24-24-24-63 0-87 12-12 28-18 44-18 15 0 31 6 43 18l387 387 387-387c12-12 28-18 44-18 15 0 31 6 43 18 24 24 24 63 0 87l-387 387z" ></path></svg>

<svg id="conference" transform="rotate(180)" viewBox="-150 -400 1500 1500"><path fill="currentColor" d="M161 850l0-96 32 0 0-198c-55-14-96-64-96-124 0-38 17-73 44-96l-28 0c-62 0-113-51-113-113l0-225c0-35 29-64 65-64 11 0 22 3 32 9l0-90 32 0 0 113 193 0 0-113 33 0 0 90c9-6 20-9 32-9 35 0 64 29 64 64l0 225c0 6 0 11-1 16l114 0 0-131c-19-7-32-25-32-46 0-26 21-48 48-48 27 0 48 22 48 48 0 21-13 39-32 46l0 131 371 0 0 515 32 0 0 96-838 0z m-32-418c0 53 43 97 97 97 53 0 96-44 96-97 0-53-43-96-96-96-54 0-97 43-97 96z m128-128l-31-39-31 39 62 0z m162-306c0-18-14-32-32-32-18 0-32 14-32 32l0 241-33 0 0-241-193 0 0 241-32 0 0-241c0-18-15-32-32-32-18 0-33 14-33 32l0 225c0 44 36 81 81 81l40 0 73-90 72 90 40 0c45 0 81-37 81-81l0-225z m161 48c-9 0-16 8-16 16 0 9 7 16 16 16 9 0 16-7 16-16 0-8-7-16-16-16z m355 225l-495 0c-18 38-57 65-102 65l-27 0c26 23 44 58 44 96 0 71-58 129-129 129l0 193 709 0 0-483z m-742 515l774 0 0 32-774 0 0-32z m242-435c27 0 48 21 48 48 0 8-2 15-5 22l83 95c6-3 12-4 19-4 12 0 23 4 32 11l69-57c-3-6-4-12-4-19 0-26 21-48 48-48 27 0 48 22 48 48 0 9-2 18-7 25l81 121c2-1 5-1 7-1 27 0 48 22 48 48 0 27-21 48-48 48-27 0-48-21-48-48 0-12 5-24 12-32l-77-116c-5 2-10 3-16 3-8 0-16-2-22-5l-75 62c0 2 0 5 0 8 0 26-21 48-48 48-27 0-48-22-48-48 0-8 2-16 5-22l-83-95c-6 3-12 4-19 4-27 0-48-21-48-48 0-27 21-48 48-48z m419 305c9 0 16-7 16-16 0-9-7-16-16-16-9 0-16 7-16 16 0 9 7 16 16 16z m-129-193c9 0 16-7 16-16 0-9-7-16-16-16-9 0-16 7-16 16 0 9 7 16 16 16z m-145 113c9 0 16-7 16-16 0-9-7-16-16-16-9 0-16 7-16 16 0 9 7 16 16 16z m-145-161c9 0 16-7 16-16 0-9-7-16-16-16-9 0-16 7-16 16 0 9 7 16 16 16z" ></path></svg>

<svg id="ok" transform="rotate(180)" viewBox="-150 -400 1500 1500"><path fill="currentColor" d="M933 534q0-22-16-38l-404-404-76-76q-16-15-38-15t-38 15l-76 76-202 202q-15 16-15 38t15 38l76 76q16 16 38 16t38-16l164-165 366 367q16 16 38 16t38-16l76-76q16-15 16-38z" ></path></svg>

<svg id="heart" transform="rotate(180)" viewBox="-150 -400 1500 1500"><path fill="currentColor" d="M775 849q126 0 207-80t81-207v-60q0-285-532-653-531 367-531 653v60q0 127 81 207t206 80q81 0 134-30t110-99q58 68 111 99t133 30z" ></path></svg>

<svg id="down-open" transform="rotate(180)" viewBox="-150 -400 1500 1500"><path fill="currentColor" d="M939 399l-414-413q-10-11-25-11t-25 11l-414 413q-11 11-11 26t11 25l93 92q10 11 25 11t25-11l296-296 296 296q11 11 25 11t26-11l92-92q11-11 11-25t-11-26z" ></path></svg>

<svg id="left-open" transform="rotate(180)" viewBox="-150 -400 1500 1500"><path fill="currentColor" d="M654 682l-297-296 297-297q10-10 10-25t-10-25l-93-93q-11-10-25-10t-25 10l-414 415q-11 10-11 25t11 25l414 414q10 11 25 11t25-11l93-93q10-10 10-25t-10-25z" ></path></svg>

<svg id="right-open" transform="rotate(180)" viewBox="-150 -400 1500 1500"><path fill="currentColor" d="M618 361l-414-415q-11-10-25-10t-25 10l-93 93q-11 11-11 25t11 25l296 297-296 296q-11 11-11 25t11 25l93 93q10 11 25 11t25-11l414-414q10-11 10-25t-10-25z" ></path></svg>

<svg id="up-open" transform="rotate(180)" viewBox="-150 -400 1500 1500"><path fill="currentColor" d="M939 107l-92-92q-11-10-26-10t-25 10l-296 297-296-297q-11-10-25-10t-25 10l-93 92q-11 11-11 26t11 25l414 414q11 10 25 10t25-10l414-414q11-11 11-25t-11-26z" ></path></svg>

<svg id="lock" transform="rotate(180)" viewBox="-150 -400 1500 1500"><path fill="currentColor" d="M532 413l-369 0 0 134c0 107 83 193 185 193 102 0 185-86 185-193l0-134-1 0z m-116-291l0-119c0-32-24-57-54-57-30 0-54 25-54 57l0 119c-19 16-31 40-31 68 0 48 38 88 85 88 47 0 85-40 85-88 0-28-12-52-31-68z m222 291l0 134c0 167-130 303-291 303-160 0-290-136-290-303l0-134-57 0 0-563 700 0 0 563-62 0 0 0z" ></path></svg>

<svg id="menu" transform="rotate(180)" viewBox="-150 -400 1500 1500"><path fill="currentColor" d="M1274 318l-1220 0c-30 0-54 25-54 56 0 30 24 55 54 55l1220 0c30 0 54-25 54-55 0-31-24-56-54-56m0 419l-1220 0c-30 0-54 25-54 55 0 31 24 56 54 56l1220 0c30 0 54-25 54-56 0-30-24-55-54-55m0-838l-1220 0c-30 0-54 25-54 56 0 30 24 55 54 55l1220 0c30 0 54-25 54-55 0-31-24-56-54-56" ></path></svg>

<svg id="feedback" transform="rotate(180)" viewBox="-150 -400 1500 1500"><path fill="currentColor" d="M487 163c5 15-4 30-18 35-14 4-30-4-35-18-14-46-56-77-104-77-48 0-91 31-105 77-5 14-20 22-34 18-15-5-23-20-18-35 21-69 84-115 157-115 72 0 135 46 157 115z m-212 187c0 31-25 55-55 55-31 0-55-24-55-55 0-30 24-55 55-55 30 0 55 25 55 55z m220 0c0 31-25 55-55 55-31 0-55-24-55-55 0-30 24-55 55-55 30 0 55 25 55 55z m109-110c0-151-123-275-274-275-152 0-275 124-275 275 0 152 123 275 275 275 151 0 274-123 274-275z m55 0c0 182-147 330-329 330-182 0-330-148-330-330 0-182 148-330 330-330 182 0 329 148 329 330z m230 177c-17 55-67 92-125 92-58 0-109-37-126-92-4-12 3-24 15-27 11-4 23 2 27 14 11 37 45 61 84 61 38 0 72-24 84-61 3-12 16-18 27-14 12 3 18 15 14 27z m-169 202c0 25-20 44-44 44-25 0-44-19-44-44 0-24 19-44 44-44 24 0 44 20 44 44z m176 0c0 25-20 44-44 44-25 0-44-19-44-44 0-24 19-44 44-44 24 0 44 20 44 44z m88-88c0-121-99-219-220-219-121 0-220 98-220 219 0 122 99 220 220 220 121 0 220-98 220-220z m44 0c0 146-119 264-264 264-146 0-264-118-264-264 0-145 118-263 264-263 145 0 264 118 264 263z" ></path></svg>

<svg id="profiles" transform="rotate(180)" viewBox="-150 -400 1500 1500"><path fill="currentColor" d="M1041 768l-399 0c-10 0-19-8-19-18 0-11 9-19 19-19l399 0c33 0 61-27 61-61l0-21c-17 13-38 21-61 21l-454 0 0 80c0 54-43 97-97 97l-393 0c-54 0-97-43-97-97l0-872c0-10 8-18 18-18l1102 0c10 0 18 8 18 18l0 792c0 54-44 98-97 98z m61-871l-1066 0 0 853c0 33 28 61 61 61l393 0c34 0 61-28 61-61l0-98c0-10 8-18 18-18l472 0c33 0 61-28 61-62l0-675z m-286 384c50 0 91 41 91 91 0 51-41 92-91 92-50 0-90-41-90-92 0-50 40-91 90-91z m0 146c30 0 55-24 55-55 0-30-25-55-55-55-30 0-54 25-54 55 0 31 24 55 54 55z m0-183c-24 0-49-6-70-18-9-5-12-16-8-25 5-9 16-12 25-7 16 9 35 13 53 13 57 0 104-41 113-96l-113 0c-10 0-18-8-18-18 0-10 8-19 18-19l132 0c10 0 18 9 18 19 0 83-67 151-150 151z m-493-133l-114 0c9 55 56 96 112 96 19 0 38-4 54-13 9-5 20-2 25 7 4 9 1 20-8 25-21 12-46 18-71 18-82 0-149-68-149-151 0-10 8-19 18-19l133 0c10 0 18 9 18 19 0 10-8 18-18 18z m-2 170c51 0 91 41 91 91 0 51-40 92-91 92-50 0-90-41-90-92 0-50 40-91 90-91z m0 146c31 0 55-24 55-55 0-30-24-55-55-55-30 0-54 25-54 55 0 31 24 55 54 55z m248-153c64 0 117 53 117 118 0 65-53 118-117 118-65 0-117-53-117-118 0-65 52-118 117-118z m0 200c44 0 81-37 81-82 0-45-37-81-81-81-45 0-81 36-81 81 0 45 36 82 81 82z m0-237c-109 0-197-89-197-199 0-10 8-18 18-18l358 0c10 0 18 8 18 18 0 110-88 199-197 199z m-160-180c9 81 77 144 160 144 83 0 151-63 160-144l-320 0z" ></path></svg>

<svg id="reports" transform="rotate(180)" viewBox="-150 -400 1500 1500"><path fill="currentColor" d="M484 481l-56 0c-8 0-13-6-13-13 0-8 5-13 13-13l23 0-66-52-82 85c-5 6-12 6-17 2l-88-65c-5-4-7-13-3-18 6-6 14-7 19-2l78 57 83-85c2-3 6-4 9-4 3 0 5 1 8 2l78 60 0-14c0-8 6-13 14-13 8 0 13 5 13 13l0 47c0 7-5 13-13 13z m-126 284c0-11-9-20-20-20-11 0-20 9-20 20 0 10 9 19 20 19 11 0 20-9 20-19z m302-59l-132 0 0 12c0 32-31 60-69 60l-35 0c-6 40-43 71-87 71-45 0-81-31-88-71l-35 0c-37 0-68-26-68-60l0-12-132 0c-9 0-14-5-14-13l0-828c0-7 5-13 14-13l645 0c8 0 13 6 13 13l0 828c2 8-4 13-12 13z m-486 12c0 18 19 34 42 34l47 0c8 0 13 5 13 13 0 32 27 58 61 58 34 0 60-26 60-58 0-8 6-13 14-13l47 0c23 0 42-15 42-34l0-61-326 0 0 61z m-62-38l36 0 0-36c0-8 6-13 14-13l354 0c8 0 13 5 13 13l0 36 37 0 0-703-454 0 0 703z m535-802l-617 0 0 802 55 0 0-716c0-8 5-13 13-13l480 0c8 0 13 5 13 13l0 716 56 0 0-802z m-147 344l-323 0c-9 0-14-5-14-13 0-7 5-13 14-13l323 0c8 0 13 6 13 13 0 8-6 13-13 13z m0-103l-323 0c-9 0-14-6-14-13 0-8 5-13 14-13l323 0c8 0 13 5 13 13 0 7-6 13-13 13z" ></path></svg>

<svg id="search" transform="rotate(180)" viewBox="-150 -400 1500 1500"><path fill="currentColor" d="M643 386q0 103-73 176t-177 74-177-74-73-176 73-177 177-73 177 73 73 177z m286-465q0-29-22-50t-50-21q-30 0-50 21l-191 191q-100-69-223-69-80 0-153 31t-125 84-84 125-31 153 31 152 84 126 125 84 153 31 153-31 125-84 84-126 31-152q0-123-69-223l191-191q21-21 21-51z" ></path></svg>

<svg id="settings" transform="rotate(180)" viewBox="-150 -400 1500 1500"><path fill="currentColor" d="M576 239l0-112-55 0 0-167q0-23-17-40t-39-17-39 17-17 40l0 167-56 0 0 112 56 0 0 503q0 24 17 39t38 16q24 0 41-16t16-39l0-503 55 0z m335 335l0-112-55 0 0-502q0-23-16-40t-41-17q-23 0-39 17t-16 40l0 502-56 0 0 112 56 0 0 168q0 24 16 39t39 16 41-16 16-39l0-168 55 0z m-670-112l0-111-55 0 0-391q0-23-16-40t-40-17q-23 0-39 17t-17 40l0 391-56 0 0 111 56 0 0 280q0 24 16 39t40 16 40-16 16-39l0-280 55 0z" ></path></svg>

<svg id="user" transform="rotate(180)" viewBox="-150 -400 1500 1500"><path fill="currentColor" d="M499 323c124 0 224 118 224 263 0 200-100 262-224 262-124 0-224-62-224-262 0-145 100-263 224-263z m494-386l-113 255c-5 12-14 21-25 27l-175 91c-4 2-9 2-12-1-50-37-108-57-169-57-61 0-119 20-168 57-4 3-9 3-12 1l-176-91c-11-6-20-15-25-27l-113-255c-8-17-6-37 4-54 11-16 28-25 48-25l885 0c19 0 36 9 47 25 10 17 12 37 4 54z" ></path></svg>

<svg id="bell" transform="rotate(180)" viewBox="-150 -400 1500 1500"><path fill="currentColor" d="M509-96q0 8-9 8-33 0-57 24t-23 57q0 9-9 9t-9-9q0-41 29-70t69-28q9 0 9 9z m-372 160h726q-149 168-149 465 0 28-13 58t-39 58-67 45-95 17-95-17-67-45-39-58-13-58q0-297-149-465z m827 0q0-29-21-50t-50-21h-250q0-59-42-101t-101-42-101 42-42 101h-250q-29 0-50 21t-21 50q28 24 51 49t47 67 42 89 27 115 11 145q0 84 66 157t171 89q-5 10-5 21 0 23 16 38t38 16 38-16 16-38q0-11-5-21 106-16 171-89t66-157q0-78 11-145t28-115 41-89 48-67 50-49z" ></path></svg>

<svg id="trash-empty" transform="rotate(180)" viewBox="-150 -400 1500 1500"><path fill="currentColor" d="M286 439v-321q0-8-5-13t-13-5h-36q-8 0-13 5t-5 13v321q0 8 5 13t13 5h36q8 0 13-5t5-13z m143 0v-321q0-8-5-13t-13-5h-36q-8 0-13 5t-5 13v321q0 8 5 13t13 5h36q8 0 13-5t5-13z m142 0v-321q0-8-5-13t-12-5h-36q-8 0-13 5t-5 13v321q0 8 5 13t13 5h36q7 0 12-5t5-13z m72-404v529h-500v-529q0-12 4-22t8-15 6-5h464q2 0 6 5t8 15 4 22z m-375 601h250l-27 65q-4 5-9 6h-177q-6-1-10-6z m518-18v-36q0-8-5-13t-13-5h-54v-529q0-46-26-80t-63-34h-464q-37 0-63 33t-27 79v531h-53q-8 0-13 5t-5 13v36q0 8 5 13t13 5h172l39 93q9 21 31 35t44 15h178q23 0 44-15t30-35l39-93h173q8 0 13-5t5-13z" ></path></svg>

<svg id="attention-circled" transform="rotate(180)" viewBox="-150 -400 1500 1500"><path fill="currentColor" d="M429 779q116 0 215-58t156-156 57-215-57-215-156-156-215-58-216 58-155 156-58 215 58 215 155 156 216 58z m71-696v106q0 8-5 13t-12 5h-107q-8 0-13-5t-6-13v-106q0-8 6-13t13-6h107q7 0 12 6t5 13z m-1 192l10 346q0 7-6 10-5 5-13 5h-123q-8 0-13-5-6-3-6-10l10-346q0-6 5-10t14-4h103q8 0 13 4t6 10z" ></path></svg>

<svg id="folder" transform="rotate(180)" viewBox="-150 -400 1500 1500"><path fill="currentColor" d="M929 511v-393q0-51-37-88t-88-37h-679q-51 0-88 37t-37 88v536q0 51 37 88t88 37h179q51 0 88-37t37-88v-18h375q51 0 88-37t37-88z" ></path></svg>

<svg id="folder-open" transform="rotate(180)" viewBox="-150 -400 1500 1500"><path fill="currentColor" d="M1049 319q0-17-18-37l-187-221q-24-28-67-48t-81-20h-607q-19 0-33 7t-15 24q0 17 17 37l188 221q24 28 67 48t80 20h607q19 0 34-7t15-24z m-192 192v-90h-464q-53 0-110-26t-92-67l-188-221-2-3q0 2-1 7t0 7v536q0 51 37 88t88 37h179q51 0 88-37t37-88v-18h303q52 0 88-37t37-88z" ></path></svg>

<svg id="cog" transform="rotate(180)" viewBox="-150 -400 1500 1500"><path fill="currentColor" d="M571 350q0 59-41 101t-101 42-101-42-42-101 42-101 101-42 101 42 41 101z m286 61v-124q0-7-4-13t-11-7l-104-16q-10-30-21-51 19-27 59-77 6-6 6-13t-5-13q-15-21-55-61t-53-39q-7 0-14 5l-77 60q-25-13-51-21-9-76-16-104-4-16-20-16h-124q-8 0-14 5t-6 12l-16 103q-27 9-50 21l-79-60q-6-5-14-5-8 0-14 6-70 64-92 94-4 5-4 13 0 6 5 12 8 12 28 37t30 40q-15 28-23 55l-102 15q-7 1-11 7t-5 13v124q0 7 5 13t10 7l104 16q8 25 22 51-23 32-60 77-6 7-6 14 0 5 5 12 15 20 55 60t53 40q7 0 15-5l77-60q24 13 50 21 9 76 17 104 3 16 20 16h124q7 0 13-5t7-12l15-103q28-9 51-20l79 59q5 5 13 5 7 0 14-5 72-67 92-95 4-5 4-12 0-7-4-13-9-12-29-37t-30-40q15-28 23-54l102-16q7-1 12-7t4-13z" ></path></svg>

<svg id="cog-alt" transform="rotate(180)" viewBox="-150 -400 1500 1500"><path fill="currentColor" d="M500 350q0 59-42 101t-101 42-101-42-42-101 42-101 101-42 101 42 42 101z m429-286q0 29-22 51t-50 21-50-21-21-51q0-29 21-50t50-21 51 21 21 50z m0 572q0 29-22 50t-50 21-50-21-21-50q0-30 21-51t50-21 51 21 21 51z m-215-235v-103q0-6-4-11t-8-6l-87-14q-6-19-18-42 19-27 50-64 4-6 4-11 0-7-4-11-12-17-46-50t-43-33q-7 0-12 4l-64 50q-21-11-43-17-6-60-13-87-4-13-17-13h-104q-6 0-11 4t-5 10l-13 85q-19 6-42 18l-66-50q-4-4-11-4-6 0-12 4-80 75-80 90 0 5 4 10 5 8 23 30t26 34q-13 24-20 46l-85 13q-5 1-9 5t-4 11v104q0 5 4 10t9 6l86 14q7 19 18 42-19 27-50 64-4 6-4 11 0 7 4 12 12 16 46 49t44 33q6 0 12-4l64-50q19 10 43 18 6 60 13 86 3 13 16 13h104q6 0 11-4t6-10l13-85q19-6 42-17l65 49q5 4 12 4 6 0 11-4 81-75 81-90 0-4-4-10-7-9-24-30t-25-34q13-27 19-46l85-12q6-2 9-6t4-11z m357-298v-78q0-9-83-17-6-15-16-29 28-63 28-77 0-2-2-4-68-40-69-40-5 0-26 27t-29 37q-11-1-17-1t-17 1q-7-11-29-37t-25-27q-1 0-69 40-3 2-3 4 0 14 29 77-10 14-17 29-83 8-83 17v78q0 9 83 18 7 16 17 29-29 63-29 77 0 2 3 4 2 1 19 11t33 19 17 9q4 0 25-26t29-38q12 1 17 1t17-1q28 40 51 63l4 1q2 0 69-39 2-2 2-4 0-14-28-77 9-13 16-29 83-9 83-18z m0 572v-78q0-9-83-18-6-15-16-29 28-63 28-77 0-2-2-4-68-39-69-39-5 0-26 26t-29 38q-11-1-17-1t-17 1q-7-12-29-38t-25-26q-1 0-69 39-3 2-3 4 0 14 29 77-10 14-17 29-83 9-83 18v78q0 9 83 17 7 16 17 29-29 63-29 77 0 2 3 4 2 1 19 11t33 19 17 9q4 0 25-26t29-37q12 1 17 1t17-1q28 39 51 62l4 1q2 0 69-39 2-2 2-4 0-14-28-77 9-13 16-29 83-8 83-17z" ></path></svg>

<svg id="wrench" transform="rotate(180)" viewBox="-150 -400 1500 1500"><path fill="currentColor" d="M214 29q0 14-10 25t-25 10-25-10-11-25 11-25 25-11 25 11 10 25z m360 234l-381-381q-21-20-50-20-29 0-51 20l-59 61q-21 20-21 50 0 29 21 51l380 380q22-55 64-97t97-64z m354 243q0-22-13-59-27-75-92-122t-144-46q-104 0-177 73t-73 177 73 176 177 74q32 0 67-10t60-26q9-6 9-15t-9-16l-163-94v-125l108-60q2 2 44 27t75 45 40 20q8 0 13-5t5-14z" ></path></svg>

<svg id="calendar" transform="rotate(180)" viewBox="-150 -400 1500 1500"><path fill="currentColor" d="M71-79h161v161h-161v-161z m197 0h178v161h-178v-161z m-197 197h161v178h-161v-178z m197 0h178v178h-178v-178z m-197 214h161v161h-161v-161z m411-411h179v161h-179v-161z m-214 411h178v161h-178v-161z m428-411h161v161h-161v-161z m-214 197h179v178h-179v-178z m-196 482v161q0 7-6 12t-12 6h-36q-7 0-12-6t-6-12v-161q0-7 6-13t12-5h36q7 0 12 5t6 13z m410-482h161v178h-161v-178z m-214 214h179v161h-179v-161z m214 0h161v161h-161v-161z m18 268v161q0 7-5 12t-13 6h-35q-7 0-13-6t-5-12v-161q0-7 5-13t13-5h35q8 0 13 5t5 13z m215 36v-715q0-29-22-50t-50-21h-786q-29 0-50 21t-21 50v715q0 29 21 50t50 21h72v54q0 37 26 63t63 26h36q37 0 63-26t26-63v-54h214v54q0 37 27 63t63 26h35q37 0 64-26t26-63v-54h71q29 0 50-21t22-50z" ></path></svg>

<svg id="home" transform="rotate(180)" viewBox="-150 -400 1500 1500"><path fill="currentColor" d="M786 296v-267q0-15-11-25t-25-11h-214v214h-143v-214h-214q-15 0-25 11t-11 25v267q0 1 0 2t0 2l321 264 321-264q1-1 1-4z m124 39l-34-41q-5-5-12-6h-2q-7 0-12 3l-386 322-386-322q-7-4-13-3-7 1-12 6l-35 41q-4 6-3 13t6 12l401 334q18 15 42 15t43-15l136-113v108q0 8 5 13t13 5h107q8 0 13-5t5-13v-227l122-102q6-4 6-12t-4-13z" ></path></svg>

<svg id="chart-bar" transform="rotate(180)" viewBox="-150 -400 1500 1500"><path fill="currentColor" d="M357 350v-286h-143v286h143z m214 286v-572h-142v572h142z m572-643v-72h-1143v858h71v-786h1072z m-357 500v-429h-143v429h143z m214 214v-643h-143v643h143z" ></path></svg>

<svg id="yammer" transform="rotate(180)" viewBox="-150 -400 1500 1500"><path fill="currentColor" d="M813 327c92-19 186-27 280-33 32-2 62 27 61 58 1 32-29 61-61 59-94-6-188-14-280-34-16-3-56-7-56-25 0-17 40-21 56-25z m-758 522c-17 0-34-9-44-23-10-15-13-36-6-53 0 0 74-189 150-384 37-94 74-189 104-265-10-23-18-45-25-61-6-14-8-20-13-31-13-27-41-49-67-50-45-4-92-7-92-7-15-1-29-7-39-18-9-11-14-26-13-40 1-15 7-29 18-38 11-10 26-15 41-14 44 0 56-1 112 8 84 22 127 78 155 148 10 25 23 58 38 96 31 77 69 175 107 272 76 195 149 384 149 384 7 17 5 38-6 53-10 15-29 24-47 23-11-1-21-4-30-11-9-6-15-15-19-25 0 0-74-189-149-383-21-53-42-106-61-156-20 50-40 102-61 156-76 194-149 383-149 383-4 10-11 19-19 25-9 7-20 10-30 11-1 0-3 0-4 0l0 0z m652-701c69-65 145-120 222-174 27-19 68-9 83 18 17 27 7 67-22 82-84 43-168 86-257 117-16 5-52 22-61 8-9-15 23-40 35-51l0 0z m0 409c69 65 145 120 222 174 27 19 68 9 83-19 17-26 7-66-22-81-84-44-168-86-257-117-16-5-52-23-61-8-9 15 23 40 35 51l0 0z" ></path></svg>

<svg id="picture" transform="rotate(180)" viewBox="-150 -400 1500 1500"><path fill="currentColor" d="M357 529q0-45-31-76t-76-32-76 32-31 76 31 76 76 31 76-31 31-76z m572-215v-250h-786v107l178 179 90-89 285 285z m53 393h-893q-7 0-12-5t-6-13v-678q0-7 6-13t12-5h893q7 0 13 5t5 13v678q0 8-5 13t-13 5z m89-18v-678q0-37-26-63t-63-27h-893q-36 0-63 27t-26 63v678q0 37 26 63t63 27h893q37 0 63-27t26-63z" ></path></svg>

<svg id="faq" transform="rotate(180)" viewBox="-150 -400 1500 1500"><path fill="currentColor" d="M50 812v-456h228v-38h-266v532h684v-266h-38v228h-608z m266-266h684v-532h-114v-153h-31l-152 153h-387v532z m646-494v456h-608v-456h363l131-131v131h114z m-406 307l-4 43c25 7 50 12 76 12 44 0 87-19 87-68 0-54-70-75-65-125h-47c0 36 14 56 28 72 14 15 28 27 28 47 0 25-22 35-44 35-20 0-40-7-59-16z m44-216v53h53v-53h-53z" ></path></svg>

<svg id="star" transform="rotate(180)" viewBox="-150 -400 1500 1500"><path fill="currentColor" d="M929 489q0-12-15-27l-202-197 48-279q0-4 0-12 0-11-6-19t-17-9q-10 0-22 7l-251 132-250-132q-12-7-23-7-11 0-17 9t-6 19q0 4 1 12l48 279-203 197q-14 15-14 27 0 21 31 26l280 40 126 254q11 23 27 23t28-23l125-254 280-40q32-5 32-26z" ></path></svg>

<svg id="star-empty" transform="rotate(180)" viewBox="-150 -400 1500 1500"><path fill="currentColor" d="M635 290l170 166-235 34-106 213-105-213-236-34 171-166-41-235 211 111 211-111z m294 199q0-12-15-27l-202-197 48-279q0-4 0-12 0-28-23-28-10 0-22 7l-251 132-250-132q-12-7-23-7-11 0-17 9t-6 19q0 4 1 12l48 279-203 197q-14 15-14 27 0 21 31 26l280 40 126 254q11 23 27 23t28-23l125-254 280-40q32-5 32-26z" ></path></svg>

<svg id="arrow-right-circle" transform="rotate(180)" viewBox="-150 -400 1500 1500"><path fill="currentColor" d="M500-150c-276 0-500 224-500 500 0 276 224 500 500 500 276 0 500-224 500-500 0-276-224-500-500-500z m0 939c-241 0-437-198-437-439 0-241 196-438 437-438 241 0 438 197 438 438 0 241-197 439-438 439z m20-628c-12 12-12 32 0 44l113 113h-352c-17 0-31 14-31 32 0 17 14 31 31 31h354l-115 115c-12 12-12 32 0 44 6 6 14 9 22 9 8 0 16-3 22-9l185-189-185-190c-12-12-32-12-44 0z" ></path></svg>

<svg id="info-circled" transform="rotate(180)" viewBox="-150 -400 1500 1500"><path fill="currentColor" d="M454 810q190 2 326-130t140-322q2-190-131-327t-323-141q-190-2-327 131t-139 323q-4 190 130 327t324 139z m52-152q-42 0-65-24t-23-50q-2-28 15-44t49-16q38 0 61 22t23 54q0 58-60 58z m-120-594q30 0 84 26t106 78l-18 24q-48-36-72-36-14 0-4 38l42 160q26 96-22 96-30 0-89-29t-115-75l16-26q52 34 74 34 12 0 0-34l-36-152q-26-104 34-104z" ></path></svg>

<svg id="heart-empty" transform="rotate(180)" viewBox="-150 -400 1500 1500"><path fill="currentColor" d="M1063 562v-60q0-285-532-653-531 367-531 653v60q0 127 81 207t206 80q81 0 134-30t110-99q58 68 111 99t133 30q126 0 207-80t81-207z m-117-55v50q0 58-39 114t-95 61q-12 2-37 2-53 0-83-19t-72-69l-89-105-89 105q-42 49-72 69t-83 19q-24 0-37-2-56-6-93-60t-41-115v-50q0-30 17-75 68-199 398-441 329 239 399 441 16 50 16 75z" ></path></svg>

<svg id="pencil" transform="rotate(180)" viewBox="-150 -400 1500 1500"><path fill="currentColor" d="M895 794c37-34 56-71 57-111 1-40-17-79-54-117-15-15-99-99-253-252-154-152-266-263-337-333-2-2-4-4-6-5-2-1-4-2-7-3-40-12-125-39-256-81-2-2-6-2-9-2-1 0-3 0-4 0l-4 1c-1 0-2 1-3 1-2 1-3 2-4 2-1 1-2 2-3 2-1 1-2 2-3 3-8 9-11 19-8 31 49 163 75 250 78 260 2 5 5 10 8 13 381 381 576 577 588 588 34 34 72 51 115 51 19 0 37-4 55-12 17-8 34-20 50-36z m-230-98l-2-1-3-4-1-2-14-13-2-1-3-3-1-2-6-7-2 0-3-3-1-2-4-5-2-1-2-2-1-1-4-4-2-1-2-2 0-2-4-3-2-1-1-1-1-2-4-4-1-1-1-1-1-2-4-3-2-1-1-1-1-2-2-3-2-1-1-1-1-1-4-4-2-1-1-1-1-2-2-3-2-1-1-1-1-1-3-3-2-1-1-2-2-3-2-1-1-1-1-1-3-3-2-1-1-1-1-2-2-3-2-1-1-2-3-2-2-1-1-1-1-2-3-3-1-1-1-2-3-2-2-1-1-1-1-2-3-3-1-1-1-2-3-2-2-1-1-1-1-2-3-3-1-1-1-2-3-2-2-1-1-1-1-2-3-3-2-1 0-2-3-3-2 0-1-1-1-2-3-3-2-1-1-2-2-3-2-1-1 0-1-2-3-3-2-1-1-2-2-3-2-1-1-1-1-1-3-3-2-1-1-1-1-2-2-3-2-1-1-1-1-1-3-3-2-1-1-1-1-2-2-3-2-1-1 0-1-2-3-3-2-1-1-1-1-2-2-3-2-1-1 0-1-2-4-4-2-1-1-1 0-2-4-3-2-1-1-1-1-2-4-4-1-1-1-1-1-2-4-3-2-1-1-1-1-2-3-4-2-1-2-2-1-1-4-4-2-1-2-2 0-2-5-4-2-1-1-1-1-2-5-6-2-1-2-1-1-2-6-6-1-1-2-2-1-1-8-8-1-1-2-2-1-2-10-9-1-1-4-3-1-2-35-36-1 0-9-8 0-1-17-17-1 0-3-3 0-1-10-10-1 0-2-2 0-1-8-9-1 0-1 0 0-1-7-7-1 0 0-1 0-1-6-5-1 0 0-1-5-5 0 0-1-1 0-1-4-3-1 0-1-1 0-1-3-3-1 0-1-1 0-1-2-3-1 0-1-1 0-1-3-2-1 0 0-1-3-3-1 0 0-1-2-2 0 0 0-1-3-3-1 0 0 0-2-2-1 0 0-1-2-2-1 0 0-1-2-2-1 0 0-1-2-3c32-13 61-32 87-58 22-22 39-48 51-76 244 241 407 403 491 486-2 6-3 13-5 20-3 7-8 18-15 32-8 14-17 27-29 38-27 27-56 45-87 52z m-534-544c-4-15-14-46-29-92-15-46-25-79-31-97 21 7 54 18 101 33 47 16 76 26 89 30-9 29-24 53-45 74-26 27-55 44-85 52z m723 457c25 25 38 49 38 72 0 11-4 23-10 34-7 12-16 24-28 36-10 10-21 17-32 22-10 5-21 7-32 7-12 0-24-2-36-8-12-6-21-10-25-14-5-4-9-7-12-10l-4-5c30-13 57-32 82-56 24-24 42-53 54-85l5 5c0 1 0 1 0 2z" ></path></svg>

<svg id="staffing" transform="rotate(180)" viewBox="-150 -400 1500 1500"><path fill="currentColor" d="M584-150c0 32 0 64 0 96 0 31-20 58-48 64-3 1-5 1-8-2-19-22-38-43-57-64-1-1-2-2-3-4-1 1-2 2-3 3-19 22-39 43-58 65-2 2-4 3-7 3-22-5-49-29-48-65 0-32 0-64 0-96h-29c0 2 0 4 0 5 0 33 0 66 0 98 1 21 8 39 20 55 14 18 31 31 52 34 7 1 13 1 19 1 1 0 3-1 4-2 16-17 31-35 46-52 1-1 2-2 3-4 1 0 1 0 2-1 1 2 1 4 2 5 15 17 30 34 45 51 3 2 5 3 9 4 44 1 80-40 86-79 1-7 1-14 2-21 0-30 0-59 0-89 0-2 0-3 0-5h-29z m-323 0c0 1 0 2 0 4 0 31 0 61 0 92 0 31-20 58-47 64-3 1-6 1-8-2-19-22-38-43-58-64-1-1-1-3-2-4-2 1-3 3-4 4-19 21-39 42-58 64-2 3-4 3-7 3-21-5-48-28-48-62 0-33 0-65 0-97 0-1 0-1 0-2h-29c0 35 0 70 0 106 1 6 2 12 4 18 9 35 43 72 87 69 1 0 3-1 4-2 16-17 31-35 47-52 1-1 2-2 4-5 1 2 1 4 2 5 15 17 31 34 46 51 2 3 5 3 9 4 43 1 79-39 85-77 2-7 2-14 2-21 0-32 0-64 0-96h-29z m710 0c0 1 0 2 0 4 0 31 0 61 0 92 0 31-20 58-47 65-4 0-6 0-8-3-19-22-39-43-58-64-1-1-2-3-3-4-1 2-2 3-3 4-19 21-39 43-58 64-2 3-4 3-7 3-21-5-48-28-48-62 0-32 0-65 0-97 0-1 0-1 0-2h-29c0 32 0 64 0 95-1 50 36 92 73 97 6 1 12 1 18 1 1 0 3-1 4-2 16-17 31-35 47-52 1-1 1-2 2-4 1 0 1 0 2 0 1 1 1 3 2 4 16 17 31 35 47 52 1 1 4 2 6 2 44 3 81-38 87-76 1-4 1-7 2-11v-106h-29z m-455 839c36 0 65 29 65 64 0 36-29 65-65 65-35 0-64-29-64-65 0-35 29-64 64-64v0z m10 161c6-1 12-2 18-4 41-12 73-52 69-101-4-45-38-80-80-87-61-11-117 38-113 100 2 47 38 85 84 91 1 0 2 1 3 1h19z m-42-484v65h32v-65h6c99 0 198 0 297 0 31 0 52-21 52-52 0-15 0-30 0-45h-32c0 2 0 3 0 5 0 14 0 28 0 43 0 10-7 17-17 17-101 0-202 0-302 0-1 0-2 0-3 0v-65h-33v65h-5c-100 0-200 0-299 0-11 0-19-8-19-19 1-15 0-30 0-46h-32c0 2 0 3 0 5 0 14 1 28 0 42-1 30 26 51 50 50 100 0 199 0 299 0 2 0 3 0 6 0m-100 97h-29c0 1 0 2 0 2 0 34 0 68 0 101 1 21 8 39 20 54 14 18 30 31 51 35 7 1 13 1 20 1 1 0 3-1 4-2 16-18 32-35 47-53 1-1 2-2 3-3 1 2 2 3 3 4 16 17 31 34 47 52 2 2 3 2 6 2 45 3 82-39 88-78 1-6 1-13 1-20 0-30 0-60 0-91 0-1 0-3 0-4h-29c0 2 0 4 0 5 0 31 0 62 0 92 0 31-22 59-49 64-2 0-4-1-6-3-19-21-38-43-58-64-1-1-2-2-3-4-1 2-2 3-3 4-19 21-39 42-58 64-2 2-4 3-7 2-22-4-48-28-48-62 0-31 0-62 0-92 0-2 0-4 0-6m-158-323c0 36-29 65-65 65-35 0-64-29-64-65 0-35 29-64 64-64 36 0 65 29 65 64v0z m-65-96c-53 0-97 43-96 97 0 53 44 96 97 96 53 0 96-44 96-97 0-53-44-96-97-96v0z m742 96c0 35-28 65-64 65-35 0-64-29-65-64 0-36 29-65 64-65 36 0 65 29 65 64v0z m-64-96c-54 0-97 43-97 97 0 53 44 96 97 96 53 0 97-44 97-97-1-53-44-97-97-96v0z m-291 96c1 36-28 65-64 65-35 0-64-29-65-64 0-36 29-65 65-65 35 0 64 29 64 64v0z m33 0c0-53-44-96-97-96-53 0-97 43-97 96 0 53 44 97 97 97 53 0 97-44 97-97v0z m-97 355h32v32h-32v-32z m-32-613h32v32h-32v-32z m387 0h32v32h-32v-32z m-710 0h32v32h-32v-32z" ></path></svg>

<svg id="narrow-tick" transform="rotate(180)" viewBox="-150 -400 1500 1500"><path fill="currentColor" d="M251-10c6-9 15-13 25-13 3 0 5 0 7 1 1 0 3-1 4-1 9 0 18 4 24 11l680 680c12 12 12 32 0 44-12 12-32 12-44 0l-665-664-224 224c-12 12-32 12-44 0-12-13-12-33 0-45l237-237z" ></path></svg>

<svg id="narrow-caution" transform="rotate(180)" viewBox="-150 -400 1500 1500"><path fill="currentColor" d="M633 17a46 46 0 0 0-46-46 46 46 0 0 0-45 46 46 46 0 0 0 45 45 46 46 0 0 0 46-45z m519-12l-492 797c-41 64-105 64-146 0l-492-797c-50-87-13-155 87-155h952c105 0 141 68 91 155z m-77-110h-975c-50 0-69 37-41 78l501 811c14 27 41 27 59 0l501-811c23-41 5-78-45-78z m-488 638c-27 0-45-23-45-45v-274c0-27 18-45 45-45 28 0 46 23 46 45v274c0 27-18 45-46 45z" ></path></svg>

<svg id="maps-and-flags" transform="rotate(180)" viewBox="-150 -400 1500 1500"><path fill="currentColor" d="M0 492c0 197 161 358 358 358 197 0 358-161 358-358 0-245-320-605-334-620-13-14-35-14-48 0-14 15-334 375-334 620z m178 0c0-99 81-180 180-180 99 0 180 81 180 180 0 99-81 180-180 180-99 0-180-81-180-180z" ></path></svg>

<svg id="map" transform="rotate(180)" viewBox="-150 -400 1500 1500"><path fill="currentColor" d="M346 44l231-175v807l-231 174v-806z m289-175l230 174v807l-230-174v-807z m555 807l-267 174v-803l267-174c12-8 22-3 22 11v752c0 14-10 32-22 40z m-1190-42v-750c0-14 10-19 22-11l267 176v801l-267-176c-12-8-22-26-22-40z" ></path></svg>

<svg id="spin1" transform="rotate(180)" viewBox="-150 -400 1500 1500"><path fill="currentColor" d="M496 850c-176 0-331-90-421-226-18-27-33-55-46-85-12-29-21-60-28-92 0 0 0-1 0-1l0 0 0 0c0-1 0-2 0-2 0-7 5-12 11-12l101 0c5 0 10 4 11 9 29 113 109 206 214 253 20 10 41 17 63 23 31 7 62 11 95 11l0 0 0 0 0 0c25 0 50-2 74-7 5-1 10-2 14-3 6-1 10-3 14-4l0 0c5-1 11 1 13 6l51 87c0 0 1 1 1 2 2 6-1 13-7 15-22 7-43 13-65 17-5 1-9 1-13 2-27 5-54 7-82 7l0 0 0 0z m327-114c-5 0-9-2-11-6l-50-87c-3-4-2-10 2-14 29-29 54-63 73-101 4-7 7-14 11-22 19-46 30-97 30-151l0 0 0 0c0-77-22-149-62-209-7-11-15-23-24-33-9-11-18-21-28-31l0 0 0 0 0 0c-4-4-5-10-2-14l50-87c0-1 1-2 2-3 4-5 11-5 16-1 58 52 104 117 134 190 6 15 11 29 15 44 14 46 21 94 21 144 0 108-34 209-92 291-11 16-23 31-37 46-13 14-26 28-41 41l0 0c-1 1-1 1-2 1-2 1-4 2-5 2z m-811-468l0 0c-1 0-2 0-3 0-6-1-10-8-9-14 34-166 149-302 302-366 30-12 61-21 93-28 32-6 66-10 100-10l0 0 0 0c40 0 79 5 117 14 7 1 14 3 22 5 6 2 13 5 20 7 1 0 2 1 3 1 6 3 8 10 4 16l-50 87c-3 5-8 7-13 6-14-4-28-7-42-9-3-1-6-1-8-2-18-2-35-3-53-3l0 0 0 0c-128 0-242 63-311 160-1 0-1 0-1 0-13 19-25 40-35 61-10 21-18 43-24 65-1 6-6 10-11 10l-101 0z" ></path></svg>

<svg id="spin2" transform="rotate(180)" viewBox="-150 -400 1500 1500"><path fill="currentColor" d="M46 144l0 0c0 0-1 0-1 0-8 18-15 37-21 55-6 19-11 38-15 58-19 99-8 203 35 298 3 6 10 8 15 5 1 0 2 0 2-1l0 0 80-59c5-3 6-9 4-14-5-12-9-25-12-37-4-13-7-26-9-40-11-67-3-137 23-201 2-5 0-10-4-13l0 0-80-56c-5-4-12-2-16 3-1 0-1 1-1 2l0 0z m120 574l0 0c0 1 0 1 0 1 15 13 30 25 46 37 16 11 33 22 51 31 89 50 192 72 297 60 6-1 10-6 10-13 0-1-1-1-1-2l0 0-31-94c-2-5-8-8-13-7-13 0-27 0-40 0-14-1-27-2-40-4-68-11-133-40-186-84-4-3-10-3-14 0l0 0-79 58c-5 3-6 11-2 16 0 0 1 1 2 1l0 0z m588 65l0 0c0 0 1 0 1 0 17-10 34-21 50-32 16-12 31-25 46-38 74-69 127-160 148-262 2-6-2-12-9-13-1 0-1 0-2 0l0 0-100 1c-5 0-10 4-11 9-3 13-8 26-12 38-5 12-10 25-17 36-31 61-78 113-137 150-5 3-6 8-5 13l0 0 31 92c2 6 9 9 15 7 1 0 2-1 2-1l0 0z m244-535l0 0c0 0 0 0 0 0-4-20-9-39-15-57-7-19-14-37-22-55-44-92-114-170-205-221-6-3-13-1-16 4 0 1-1 2-1 2l0 0-30 94c-2 6 1 12 6 14 11 7 22 15 32 23 11 9 21 18 30 27 49 48 84 109 101 176 2 5 6 8 11 8l0 0 98-1c6 0 11-5 11-11 0-1 0-2 0-3l0 0z m-438-395l0 0c0 0 0 0 0 0-20-2-40-3-60-3-20 0-40 1-59 4-102 12-198 54-276 125-5 4-5 11 0 16 0 0 1 1 1 1l0 0 81 58c5 3 12 2 16-2 10-8 20-16 32-23 11-7 22-14 34-20 62-31 131-45 200-41 6 0 10-3 12-8l0 0 29-92c2-6-1-12-7-14-1-1-2-1-3-1l0 0z" ></path></svg>

<svg id="spin3" transform="rotate(180)" viewBox="-150 -400 1500 1500"><path fill="currentColor" d="M494 850c-266 0-483-210-494-472-1-19 13-20 13-20l84 0c16 0 19 10 19 18 10 199 176 358 378 358 107 0 205-45 273-118l-58-57c-11-12-11-27 5-31l247-50c21-5 46 11 37 44l-58 227c-2 9-16 22-29 13l-65-60c-89 91-214 148-352 148z m409-508c-16 0-19-10-19-18-10-199-176-358-377-358-108 0-205 45-274 118l59 57c10 12 10 27-5 31l-248 50c-21 5-46-11-37-44l58-227c2-9 16-22 30-13l64 60c89-91 214-148 353-148 265 0 482 210 493 473 1 18-13 19-13 19l-84 0z" ></path></svg>

<svg id="notepad" transform="rotate(180)" viewBox="-150 -400 1500 1500"><path fill="currentColor" d="M76 850c-42 0-76-33-76-74l0-852c0-41 34-74 76-74l568 0c42 0 76 33 76 74l0 630-189 0c-42 0-76 33-76 74l0 222-379 0z m417 0l0-234c0-23 19-39 38-39l189 0-227 273z m-379-148l265 0 0-37-265 0 0 37z m0-111l189 0 0-37-189 0 0 37z m0-111l492 0 0-37-492 0 0 37z m0-111l379 0 0-37-379 0 0 37z m0-112l492 0 0-37-492 0 0 37z m0-111l341 0 0-37-341 0 0 37z m0-111l492 0 0-37-492 0 0 37z" ></path></svg>

<svg id="spin4" transform="rotate(180)" viewBox="-150 -400 1500 1500"><path fill="currentColor" d="M498 850c-114 0-228-39-320-116l0 0c173 140 428 130 588-31 134-134 164-332 89-495-10-29-5-50 12-68 21-20 61-23 84 0 3 3 12 15 15 24 71 180 33 393-112 539-99 98-228 147-356 147z m-409-274c-14 0-29-5-39-16-3-3-13-15-15-24-71-180-34-393 112-539 185-185 479-195 676-31l0 0c-173-140-428-130-589 31-134 134-163 333-89 495 11 29 6 50-12 68-11 11-27 17-44 16z" ></path></svg>

<svg id="info-button" transform="rotate(180)" viewBox="-150 -400 1500 1500"><path fill="currentColor" d="M109 850c-59 0-106-47-106-106l0-3c0-59 47-106 106-106l16 0c58 0 105 47 105 106l0 3c0 59-47 106-105 106l-16 0z m8-297c-65 0-117-53-117-118l0-468c0-65 52-117 117-117 65 0 117 52 117 117l0 468c0 65-52 118-117 118z" ></path></svg>

<svg id="contact" transform="rotate(180)" viewBox="-150 -400 1500 1500"><path fill="currentColor" d="M226 850c-2 0-5-1-7-3-1-1-2-2-3-3 0-1 0-3 0-4l0-257 46-63c16-22 11-53-13-70l-62-44c2 1 3 2 4 3l68 53c7 6 9 17 4 25l-121 181c-4 6-11 9-18 8-2 0-5-1-7-2l-76-46c-16-9-28-25-33-43-25-90-4-249 237-490 241-241 399-262 490-237 18 5 34 17 43 33l45 76c6 9 3 20-5 25l-181 121c-8 5-19 3-25-4l-53-68c-17-22-48-29-72-15l-10 5c-35 20-79 43-166 130-87 87-110 131-130 166l-5 10c-9 16-9 35-2 51 0-3 1-6 2-8l6-9c9-17 20-33 32-49 6-7 12-15 19-22 4-5 8-10 13-15l787 0c6 0 10 4 11 9l0 546c0 3-2 5-4 7 0 1-1 1-2 2-1 1-3 1-5 1l-807 0z m53-43c4 1 10 0 14-3l321-224c10-6 22-6 31 0l322 224c8 6 20 4 27-4 6-8 4-19-4-25l-322-223c-3-2-7-4-10-6-9-4-18-6-28-6-14 0-28 4-39 12l-321 223c-9 6-11 18-4 25 3 4 8 6 13 7z m200-251c5 0 10-2 14-5 7-7 8-18 1-25l-198-193c-7-8-19-8-27-1-8 6-8 18-1 25l197 193c4 4 9 6 14 6z m301-1c6 1 11-1 15-5l197-193c8-7 7-19-1-25-3-3-8-5-13-5-6 0-10 2-14 6l-197 193c-7 7-6 18 2 25 3 2 7 4 11 4z" ></path></svg>

<svg id="light-bulb" transform="rotate(180)" viewBox="-150 -400 1500 1500"><path fill="currentColor" d="M613 295c35 46 54 101 54 159 0 71-28 137-80 187-51 50-119 77-191 76-70-1-135-29-185-78-49-49-77-114-78-183 0-58 19-114 55-161 58-76 91-169 91-262v-101c0-45 37-82 83-82h77c46 0 83 37 83 82v101c0 94 31 185 91 262z m-398 20c-32 41-48 90-47 141 1 123 103 225 229 227 62 1 122-23 166-66 45-43 70-101 70-163 0-50-17-98-48-138-62-82-96-177-98-276h-174c-2 98-36 195-98 275z m98-358v-14l174-20c0 1 0 2 0 3l0 1c0 1 0 2 1 3 0 0 0 1 0 2v5l-175 20z m0 34v15h175v-35l-175 20z m6-82c8-15 24-25 43-25h77c10 0 19 3 27 8l-147 17z m-57 495c-1 9-1 19-1 28 0 10-6 18-14 18-7 0-14-8-14-18 0-11 1-22 2-33 1-9 7-16 14-16 0 0 1 0 2 1 7 1 12 10 11 20z m121-254c2 0 3 0 5 1 9 3 14 11 11 20-19 53-47 103-84 147-6 8-11 15-16 24-4 7-15 10-23 6-8-4-12-13-7-21 5-10 12-19 19-28 34-42 61-88 79-138 2-7 9-11 16-11z m205 232c-10 4-22 0-26-8-7-11-15-22-25-32-6-7-5-17 4-22 4-2 8-3 12-3 6 0 12 2 16 6 12 12 22 25 29 39 5 8 0 17-10 20z m-170 235c99 0 179-75 179-167 0-5 0-10 0-15-1-9 6-17 16-18 1 0 1 0 2 0 9 0 17 6 17 15 1 6 1 12 1 18 0 111-96 200-215 200-10 0-18-7-18-17 0-9 8-16 18-16z m-4 100c7 0 13 8 13 17v99c0 9-6 17-13 17-8 0-14-8-14-17v-99c0-9 6-17 14-17z m-140-26c3-5 7-8 12-8 3 0 5 1 7 2 7 4 9 13 5 20l-39 71c-4 7-12 9-19 5-6-4-9-13-5-20l39-70z m519-448l-71 39c-7 3-16 1-20-6-4-6-2-15 5-19l71-38c2-2 5-2 7-2 5 0 10 2 13 7 4 6 2 15-5 19z m-719 381l71-39c2-1 5-2 7-2 5 0 10 3 13 7 4 7 1 15-6 19l-70 39c-7 4-16 2-20-5-4-7-2-15 5-19z m775-174h-98c-10 0-18-6-18-14 0-7 8-13 18-13h98c10 0 18 6 18 13 0 8-8 14-18 14z m-716-14c0 8-7 14-17 14h-98c-10 0-18-6-18-14 0-7 8-13 18-13h98c10 0 17 6 17 13z m582 147c2 0 5 1 7 2l71 39c7 4 9 12 5 19-4 7-13 9-20 5l-71-39c-7-4-9-12-5-19 3-4 8-7 13-7z m-570-301l-71-39c-7-4-9-13-5-19 2-5 7-7 12-7 3 0 5 0 8 2l70 38c7 4 10 13 6 19-4 7-13 9-20 6z m429 403c2-1 4-2 7-2 4 0 9 3 12 8l39 70c3 7 1 16-6 20-6 4-15 2-19-5l-38-71c-4-7-2-16 5-20z" ></path></svg>

<svg id="spin5" transform="rotate(180)" viewBox="-150 -400 1500 1500"><path fill="currentColor" d="M462 850c-6 0-11-5-11-11l0-183 0 0c0-6 5-11 11-11l69 0c1 0 1 0 1 0 7 0 12 5 12 11l0 183 0 0c0 6-5 11-12 11l-69 0c0 0 0 0-1 0z m250-47c-4 1-8-2-10-5l-91-158 0 0c-4-6-2-13 4-16l60-34c0-1 0-1 0-1 6-3 13-1 16 4l91 158c3 6 2 13-4 16l-61 35c-1 1-3 1-5 1z m-428-2c-2 0-4-1-6-2l-61-35c-5-3-7-10-4-16l91-157c0 0 0 0 0 0 3-6 10-8 16-5l61 35c5 4 7 11 4 16l-91 157c0 1 0 1 0 1-2 4-6 6-10 6z m620-163c-2 0-4 0-6-1l-157-91c0 0 0 0 0 0-6-3-8-10-5-16l35-61c4-5 11-7 16-4l157 91c1 0 1 0 1 0 6 3 7 11 4 16l-35 61c-2 4-6 6-10 5z m-810-4c-5 0-9-2-11-6l-35-61c-3-5-1-12 4-15l158-91 0 0c6-4 13-2 16 4l35 60c0 0 0 0 0 0 3 6 1 13-4 16l-158 91c-2 1-4 2-5 2z m712-235l0 0c-6 0-11-5-11-11l0-69c0-1 0-1 0-1 0-7 5-12 11-12l183 0 0 0c6 0 11 5 11 12l0 69c0 0 0 0 0 1 0 6-5 11-11 11l-183 0z m-794-5l0 0c-7 0-12-5-12-12l0-69c0 0 0 0 0-1 0-6 5-11 12-11l182 0 0 0c6 0 11 5 11 11l0 69c0 1 0 1 0 1 0 7-5 12-11 12l-182 0z m772-153c-4 0-8-2-10-6l-34-60c-1 0-1 0-1 0-3-6-1-13 4-16l158-91c6-3 13-1 16 4l35 61c3 5 1 12-4 15l-158 92 0 0c-2 1-4 1-6 1z m-566-5c-1 0-3 0-5-1l-157-91c0 0-1 0-1 0-5-3-7-10-4-16l35-61c3-5 10-7 16-4l157 91c0 0 0 0 0 0 6 3 8 10 5 16l-35 61c-3 3-7 6-11 5z m468-121c-2 0-4 0-6-1l-61-35c-5-4-7-11-4-16l91-157c0-1 0-1 0-1 3-6 11-7 16-4l61 35c5 3 7 10 4 16l-91 157c0 0 0 0 0 0-2 4-6 6-10 6z m-367-2c-4 0-8-2-10-6l-91-158c-3-6-1-13 4-16l61-35c5-3 12-1 15 4l92 158 0 0c3 6 1 13-5 16l-60 35c0 0 0 0 0 0-2 1-4 1-6 2z m149-58c-7 0-12-5-12-11l0-183 0 0c0-6 5-11 12-11l69 0c0 0 0 0 1 0 6 0 11 5 11 11l0 183 0 0c0 6-5 11-11 11l-69 0c-1 0-1 0-1 0z" ></path></svg>

<svg id="spin6" transform="rotate(180)" viewBox="-150 -400 1500 1500"><path fill="currentColor" d="M855 9c-189-190-520-172-705 13-190 190-200 494-28 695 11 13 21 26 35 34 36 23 85 18 117-13 30-31 35-76 16-112-5-9-9-15-16-22-140-151-145-379-8-516 153-153 407-121 542 34 106 122 142 297 77 451-83 198-305 291-510 222l0 1c236 82 492-24 588-252 71-167 37-355-72-493-11-15-23-29-36-42z" ></path></svg>

<svg id="add" transform="rotate(180)" viewBox="-150 -400 1500 1500"><path fill="currentColor" d="M981 406h-444v444h-93v-444h-444v-93h444v-444h93v444h444v93z" ></path></svg>

<svg id="cancel" transform="rotate(180)" viewBox="-150 -400 1500 1500"><path fill="currentColor" d="M724 112q0-22-15-38l-76-76q-16-15-38-15t-38 15l-164 165-164-165q-16-15-38-15t-38 15l-76 76q-16 16-16 38t16 38l164 164-164 164q-16 16-16 38t16 38l76 76q16 16 38 16t38-16l164-164 164 164q16 16 38 16t38-16l76-76q15-15 15-38t-15-38l-164-164 164-164q15-15 15-38z" ></path></svg>

<svg id="arrow-top" transform="rotate(180)" viewBox="-150 -400 1500 1500"><path fill="currentColor" d="M282 834l-261-500 184 0 0-467 159 0 0 467 180 0-262 500z" ></path></svg>

<svg id="gms" transform="rotate(180)" viewBox="-150 -400 1500 1500"><path fill="currentColor" d="M180 848c-3 1-7 1-11 0-25-9 0-51-18-58-45 0-98 6-129-36-34-43-19-99-22-150 0-214-1-428 1-642 3-58 62-96 117-88 311 0 622-1 933 0 58 5 94 64 87 119 0 236 0 472-1 708-4 49-47 90-96 89h-60c-2 21 9 65-26 58-25-9 0-51-17-58h-154c-2 21 9 65-26 58-24-9 1-51-17-58h-154c-1 21 10 65-25 58-25-9 0-51-18-58h-153c-2 21 9 65-26 58-24-9 0-51-17-58h-154c-1 18 7 54-14 58z m835-95c29 0 58 0 76-28 17-28 8-63 10-95h-1064c3 38-11 86 26 112 10 7 22 10 34 10h60c2-21-9-64 26-58 25 10 0 51 17 58h154c2-21-9-64 25-58 25 10 0 51 18 58h154c1-21-10-64 25-58 25 10 0 51 17 58h154c2-21-9-64 26-58 24 10-1 51 17 58h154c1-21-10-64 25-58 25 10 0 51 18 58 9 0 18 0 28 1z m-978-160h1064c0-209 0-418 0-627-3-30-30-56-60-55-317 0-633 0-950 0-45 4-59 51-54 88z m139-83c-50 1-63-52-58-91 1-126-2-253 1-379 8-45 56-49 93-47h750c50 0 62 52 58 92-1 126 1 252-1 378-5 27-30 48-57 47z m711-37c28 0 56 0 83-2 8-3 13-11 13-19v-62h-179v83c27-1 55 0 83 0z m-711 0h158v-83h-179c2 26-6 54 6 77l7 4z m195 0h180v-83h-180z m216 0h180v-83h-180z m-432-120h179v-82h-179z m216 0h180v-82h-180z m216 0h180v-82h-180z m217 0h179v-82h-179z m-649-120h179v-82h-179z m216 0h180v-82h-180z m216 0h180v-82h-180z m217 0h179v-82h-179z m-649-120h179v-82c-55 1-111-2-166 2-8 3-13 11-13 19z m216 0h180v-82h-180z m216 0h180v-82h-180z m217 0h179c-2-25 6-53-6-76l-7-4-8-2h-158z" ></path></svg>

<svg id="news" transform="rotate(180)" viewBox="-150 -400 1500 1500"><path fill="currentColor" d="M21 847c-12 0-21-9-21-20l0-634c0-11 9-21 21-21 11 0 20 10 20 21l0 279 947 0 0-468c0-44 19-84 49-112l-885 0c-61 0-111 50-111 112l0 78c0 12-9 21-20 21-12 0-21-9-21-21l0-78c0-85 68-154 152-154l989 0c40 0 78 16 106 44 30 29 46 68 46 110l0 189c0 12-9 21-21 21-11 0-20-9-20-21l0-189c0-30-12-59-33-80-22-21-50-33-79-32-5 0-9 0-13 1-55 7-98 55-98 113l0 155 68 0c11 0 20 10 20 21l0 400c0 38 30 68 68 68 37 0 67-30 67-68l0-278c0-11 9-21 20-21 12 0 21 10 21 21l0 278c0 61-49 110-108 110l-156 0 0 135c0 11-9 20-20 20l-988 0z m20-41l947 0 0-292-947 0 0 292z m243-47c-11 0-20-10-20-21l0-100-96 113c-12 15-36 6-36-13l0-156c0-11 9-21 20-21 12 0 21 10 21 21l0 99 96-112c12-15 36-6 36 13l0 156c0 11-9 21-21 21z m66 0c-11 0-21-10-21-21l0-156c0-11 10-21 21-21l110 0c11 0 20 10 20 21 0 12-9 21-20 21l-89 0 0 47 45 0c11 0 21 10 21 21 0 12-10 21-21 21l-45 0 0 25 89 0c11 0 20 9 20 21 0 11-9 21-20 21l-110 0z m417 0c-11 0-20-10-20-21l0-89c0-12 9-21 20-21l89 0 0-25-89 0c-11 0-20-9-20-21 0-11 9-21 20-21l110 0c11 0 21 10 21 21l0 67c0 11-10 21-21 21l-89 0 0 47 89 0c11 0 21 9 21 21 0 11-10 21-21 21l-110 0z m-239-1c-2 1-5 1-8 0-11-3-17-15-14-26l44-156c2-8 10-14 19-15 8 0 16 5 20 13l25 63 24-63c3-8 11-13 19-13 1 0 1 0 2 0 8 1 16 7 18 15l44 156c3 11-3 23-14 26-11 3-22-3-25-15l-28-96-21 54c-3 8-11 13-19 13-9 0-16-5-20-13l-21-54-28 96c-2 9-9 14-17 15z m501-108l70 0c-14-18-23-42-23-68l0-379-47 0 0 447z m-877-225c-11 0-20-9-20-21l0-222c0-11 9-21 20-21l264 0c11 0 21 10 21 21l0 222c0 12-10 21-21 21l-264 0z m418 0c-12 0-21-9-21-21 0-11 9-21 21-21l307 0c11 0 21 10 21 21 0 12-10 21-21 21l-307 0z m-397-42l222 0 0-180-222 0 0 180z m397-69c-12 0-21-9-21-21 0-11 9-21 21-21l307 0c11 0 21 10 21 21 0 12-10 21-21 21l-307 0z m0-111c-12 0-21-9-21-21 0-11 9-21 21-21l307 0c11 0 21 10 21 21 0 12-10 21-21 21l-307 0z m-440-111c-11 0-20-10-20-21 0-12 9-21 20-21l308 0c11 0 20 9 20 21 0 11-9 21-20 21l-308 0z m440 0c-12 0-21-10-21-21 0-12 9-21 21-21l307 0c11 0 21 9 21 21 0 11-10 21-21 21l-307 0z m-440-111c-11 0-20-10-20-21 0-12 9-21 20-21l308 0c11 0 20 9 20 21 0 11-9 21-20 21l-308 0z m440 0c-12 0-21-10-21-21 0-12 9-21 21-21l307 0c11 0 21 9 21 21 0 11-10 21-21 21l-307 0z" ></path></svg>

<svg id="phone" transform="rotate(180)" viewBox="-150 -400 1500 1500"><path fill="currentColor" d="M248 827c38-52 83-119 135-202 13-22 11-48-6-80-6-13-23-43-49-90 29-40 72-89 131-148 59-58 108-102 146-131 47 28 77 44 90 51 17 9 34 14 49 14 12 0 22-3 31-8 60-37 128-82 203-135 15-10 23-25 25-43 2-18-4-37-17-58-6-10-17-23-31-41-14-17-36-39-64-66-29-27-52-40-71-40h-2c-138 5-307 109-508 310-201 201-305 370-310 508 0 19 13 42 40 72 27 29 49 50 65 63 17 13 32 24 43 32 15 10 31 15 49 15 23 0 39-8 51-23z m-64-41c-28-20-53-42-78-66-23-24-38-42-41-53 5-122 101-276 289-463 189-188 343-285 464-291 11 3 28 18 52 43 24 24 46 51 65 78 4 5 6 9 4 13-78 55-143 99-195 131-5 0-12-2-20-6-11-6-41-22-88-48l-33-20-33 22c-43 29-95 76-156 138-62 61-107 114-137 157l-24 31 20 35c26 47 42 76 49 88 4 8 6 14 6 19-47 74-90 140-129 196h-2c-5 0-9-2-13-4z" ></path></svg>

<svg id="up" transform="rotate(180)" viewBox="-150 -400 1500 1500"><path fill="currentColor" d="M0 354q0 26 18 44l391 390 390-390q18-18 18-44 0-26-18-43-18-18-43-18t-43 18l-243 243v-642q0-25-18-43t-43-18q-26 0-44 18t-17 43v642l-244-243q-18-18-43-18t-43 18q-18 17-18 43z" ></path></svg>

<svg id="down" transform="rotate(180)" viewBox="-150 -400 1500 1500"><path fill="currentColor" d="M0 283q0 25 18 43t44 18 42-18l244-243v642q0 25 18 43t43 18 43-18 18-43v-642l243 243q18 18 43 18t43-18q18-18 18-43t-18-44l-390-390-391 390q-18 20-18 44z" ></path></svg>

<svg id="envelope" transform="rotate(180)" viewBox="-150 -400 1500 1500"><path fill="currentColor" d="M1454 748c1 9 0 18-4 26-11 50-48 76-109 76h-1182c-54 0-112-20-141-59-2-2-5-4-7-6-9-11-12-25-10-37-1-4-1-8-1-12v-727c0-75 84-159 159-159h1182c75 0 114 84 114 159v727c0 4-1 8-1 12z m-1295 11l1182 0h1l-615-489-611 487c13 3 31 2 43 2z m1182-818h-1182c-25 0-68 43-68 68v651l607-485c8-7 19-11 29-11 11 0 22 4 30 11l607 485v-651c0-25 2-68-23-68z" ></path></svg>

<svg id="linkedin" transform="rotate(180)" viewBox="-150 -400 1500 1500"><path fill="currentColor" d="M1016-150h-211c-15 0-28 12-28 27v342c0 117-60 117-80 117-53 0-76-43-84-61-3-8-5-22-5-42v-356c0-15-12-27-27-27h-212c-7 0-14 3-19 8-5 5-8 12-8 19 0 6 3 578 0 637 0 7 2 14 7 20 5 5 12 8 20 8h212c15 0 27-12 27-27v-16c36 32 88 58 164 58 170 0 272-117 272-314v-366c0-15-13-27-28-27h0z m-184 54l158 0v339c0 165-79 260-217 260-93 0-137-46-166-88-3-11-13-19-26-19h-1c-10 0-19 5-24 14-3 6-4 14-2 21v57h-157c1-113 0-479-1-583h158v329c0 27 3 47 9 62 24 59 74 94 134 94 85 0 134-62 134-171v-315h1z m-580-54h-212c-15 0-27 12-27 27v638c0 15 12 27 27 27h212c15 0 27-12 27-27v-638c0-15-12-27-27-27z m-185 54h158v584h-158z m79 671l-2 0c-83 0-144 58-144 138 0 79 62 137 147 137 84 0 144-56 146-137 0-80-62-138-147-138z m1 221c-55 0-93-34-93-84 0-48 37-83 90-83h2c55 0 93 34 93 83-1 51-37 84-92 84z" ></path></svg>

<svg id="globe" transform="rotate(180)" viewBox="-150 -400 1500 1500"><path fill="currentColor" d="M1002 350c0-266-209-484-471-499-5-1-11-1-16-1-2 0-4 0-5 0-3 0-6 0-9 0-276 0-501 224-501 500 0 276 225 500 501 500 3 0 6 0 9 0 1 0 3 0 5 0 5 0 11 0 16-1 262-15 471-233 471-499z m-93 161c-17-5-61-16-137-25 6-43 10-89 10-136 0-37-2-74-6-108 96-12 139-26 142-27l-12-33c22 52 34 108 34 168 0 57-11 111-31 161z m-629-161c0-35 2-69 6-102 51 4 112 7 183 8v217c-69 0-129 3-179 7-6-41-10-85-10-130z m251-433c77 22 142 128 172 269-47 4-104 7-172 7v-276z m-62 0v276c-67 0-124-3-172-7 30-139 96-245 172-269z m0 618l0 248c-71-23-133-116-166-242 47-3 102-6 166-6z m62 248l0-248c65 0 119 3 165 7-31 127-93 221-165 241z m0-310l0-217c72-1 132-4 182-8 4 33 6 67 6 102 0 45-3 89-10 130-49-4-108-7-178-7z m363-316c-9 3-49 14-128 23-17-94-49-174-91-232 96 42 173 116 219 209z m-543-219c-51 59-92 143-115 243-71-8-113-17-130-21 49-102 138-182 245-222z m-268 280c12 4 57 15 142 24-5 35-8 71-8 108 0 47 5 93 12 135-72 8-117 18-137 23-19-49-30-102-30-158 0-46 8-90 21-132z m36 347c23-5 64-12 124-18 24 87 62 161 108 215-98-36-180-107-232-197z m556 187c38-52 67-123 86-204 62 7 101 15 120 20-47 81-119 146-206 184z" ></path></svg>

<svg id="people" transform="rotate(180)" viewBox="-150 -400 1500 1500"><path fill="currentColor" d="M728 35l-197 109c73 57 93 170 93 233v132c0 87-116 185-232 185-117 0-236-98-236-185v-132c0-57 25-174 98-233l-201-109c0 0-53-24-53-53v-79c0-29 24-53 53-53h675c29 0 53 24 53 53v79c0 31-53 53-53 53z m-10-123h-656v56c5 3 11 7 16 10 2 0 3 1 4 2l202 109c19 10 31 29 33 49 1 21-7 42-24 55-52 42-74 135-74 184v132c0 45 84 122 173 122 90 0 170-76 170-122v-132c0-49-15-142-69-184-17-13-26-34-24-55 2-21 14-39 32-49l197-109c2-1 4-2 6-3 4-2 10-5 14-8v-57z m228 278l-199 109c73 57 96 170 96 234v132c0 87-119 185-236 185-75 0-153-41-198-94 26-1 54-1 79-9 33 25 74 41 119 41 90 0 173-78 173-123v-132c0-49-18-143-72-185-16-13-25-33-23-54 1-21 14-40 32-50l199-109c2-1 4-2 6-3 5-1 10-5 15-8v-55h-126c19-14 24-35 32-63h103c29 0 53 24 53 53v78c0 31-53 53-53 53z" ></path></svg>

<svg id="location-pin" transform="rotate(180)" viewBox="-150 -400 1500 1500"><path fill="currentColor" d="M379 850c-205 0-379-175-379-381 0-217 201-438 337-594 0-1 22-25 49-25h2c27 0 49 24 50 25 127 146 312 387 312 594 0 206-135 381-371 381z m12-933c-1-1-3-3-4-4-1 1-3 3-4 4l-16 19c-129 147-304 348-304 533 0 173 144 319 316 319 213 0 309-161 309-319 0-140-100-326-297-552z m-15 744c-103 0-187-84-187-188 0-103 84-187 187-187 104 0 188 84 188 187 0 104-84 188-188 188z m0-313c-69 0-126 58-126 127 0 69 56 125 125 125 69 0 125-56 125-125 0-69-55-127-124-127z" ></path></svg>

<svg id="facebook" transform="rotate(180)" viewBox="-150 -400 1500 1500"><path fill="currentColor" d="M0 350h97v-469h193v469h130l17 161h-146v81q0 18 2 28t8 20 19 13 35 4h81v161h-129q-112 0-161-53t-49-157v-97h-97v-161z" ></path></svg>

<svg id="link-ext" transform="rotate(180)" viewBox="-150 -400 1500 1500"><path fill="currentColor" d="M786 332v-178q0-67-47-114t-114-47h-464q-67 0-114 47t-47 114v464q0 66 47 113t114 48h393q7 0 12-5t5-13v-36q0-8-5-13t-12-5h-393q-37 0-63-26t-27-63v-464q0-37 27-63t63-27h464q37 0 63 27t26 63v178q0 8 5 13t13 5h36q8 0 13-5t5-13z m214 482v-285q0-15-11-25t-25-11-25 11l-98 98-364-364q-5-6-13-6t-12 6l-64 64q-6 5-6 12t6 13l364 364-98 98q-11 11-11 25t11 25 25 11h285q15 0 25-11t11-25z" ></path></svg>

<svg id="twitter" transform="rotate(180)" viewBox="-150 -400 1500 1500"><path fill="currentColor" d="M904 622q-37-54-90-93 0-8 0-23 0-73-21-145t-64-139-103-117-144-82-181-30q-151 0-276 81 19-2 43-2 126 0 224 77-59 1-105 36t-64 89q19-3 34-3 24 0 48 6-63 13-104 62t-41 115v2q38-21 82-23-37 25-59 64t-22 86q0 49 25 91 68-83 164-133t208-55q-5 21-5 41 0 75 53 127t127 53q79 0 132-57 61 12 115 44-21-64-80-100 52 6 104 28z" ></path></svg>

<svg id="resize-full-alt" transform="rotate(180)" viewBox="-150 -400 1500 1500"><path fill="currentColor" d="M716 548l-198-198 198-198 80 80q17 18 39 8 22-9 22-33v-250q0-14-10-25t-26-11h-250q-23 0-32 23-10 21 7 38l81 81-198 198-198-198 80-81q17-17 8-38-10-23-33-23h-250q-15 0-25 11t-11 25v250q0 24 22 33 22 10 39-8l80-80 198 198-198 198-80-80q-11-11-25-11-7 0-14 3-22 9-22 33v250q0 14 11 25t25 11h250q23 0 33-23 9-21-8-38l-80-81 198-198 198 198-81 81q-17 17-7 38 9 23 32 23h250q15 0 26-11t10-25v-250q0-24-22-33-7-3-14-3-14 0-25 11z" ></path></svg>

<svg id="comment-empty" transform="rotate(180)" viewBox="-150 -400 1500 1500"><path fill="currentColor" d="M500 636q-114 0-213-39t-157-105-59-142q0-62 40-119t113-98l48-28-15-53q-13-51-39-97 85 36 154 96l24 21 32-3q38-5 72-5 114 0 213 39t157 105 59 142-59 142-157 105-213 39z m500-286q0-97-67-179t-182-130-251-48q-39 0-81 4-110-97-257-135-27-8-63-12h-3q-8 0-15 6t-9 15v1q-2 2 0 6t1 6 2 5l4 5t4 5 4 5q4 5 17 19t20 22 17 22 18 28 15 33 15 42q-88 50-138 123t-51 157q0 97 67 179t182 130 251 48 251-48 182-130 67-179z" ></path></svg>

<svg id="bell-alt" transform="rotate(180)" viewBox="-150 -400 1500 1500"><path fill="currentColor" d="M509-96q0 8-9 8-33 0-57 24t-23 57q0 9-9 9t-9-9q0-41 29-70t69-28q9 0 9 9z m455 160q0-29-21-50t-50-21h-250q0-59-42-101t-101-42-101 42-42 101h-250q-29 0-50 21t-21 50q28 24 51 49t47 67 42 89 27 115 11 145q0 84 66 157t171 89q-5 10-5 21 0 23 16 38t38 16 38-16 16-38q0-11-5-21 106-16 171-89t66-157q0-78 11-145t28-115 41-89 48-67 50-49z" ></path></svg>

<svg id="doc-text" transform="rotate(180)" viewBox="-150 -400 1500 1500"><path fill="currentColor" d="M819 638q16-16 27-42t11-50v-642q0-23-15-38t-38-16h-750q-23 0-38 16t-16 38v892q0 23 16 38t38 16h500q22 0 49-11t42-27z m-248 136v-210h210q-5 17-12 23l-175 175q-6 7-23 12z m215-853v572h-232q-23 0-38 16t-16 37v233h-429v-858h715z m-572 483q0 7 5 12t13 5h393q8 0 13-5t5-12v-36q0-8-5-13t-13-5h-393q-8 0-13 5t-5 13v36z m411-125q8 0 13-5t5-13v-36q0-8-5-13t-13-5h-393q-8 0-13 5t-5 13v36q0 8 5 13t13 5h393z m0-143q8 0 13-5t5-13v-36q0-8-5-13t-13-5h-393q-8 0-13 5t-5 13v36q0 8 5 13t13 5h393z" ></path></svg>

<svg id="angle-left" transform="rotate(180)" viewBox="-150 -400 1500 1500"><path fill="currentColor" d="M350 546q0-7-6-12l-219-220 219-219q6-6 6-13t-6-13l-28-28q-5-5-12-5t-13 5l-260 261q-6 5-6 12t6 13l260 260q5 6 13 6t12-6l28-28q6-5 6-13z" ></path></svg>

<svg id="angle-right" transform="rotate(180)" viewBox="-150 -400 1500 1500"><path fill="currentColor" d="M332 314q0-7-5-12l-261-261q-5-5-12-5t-13 5l-28 28q-6 6-6 13t6 13l219 219-219 220q-6 5-6 12t6 13l28 28q5 6 13 6t12-6l261-260q5-5 5-13z" ></path></svg>

<svg id="angle-up" transform="rotate(180)" viewBox="-150 -400 1500 1500"><path fill="currentColor" d="M600 189q0-7-6-12l-28-28q-5-6-12-6t-13 6l-220 219-219-219q-5-6-13-6t-12 6l-28 28q-6 5-6 12t6 13l260 260q5 6 12 6t13-6l260-260q6-5 6-13z" ></path></svg>

<svg id="angle-down" transform="rotate(180)" viewBox="-150 -400 1500 1500"><path fill="currentColor" d="M600 439q0-7-6-12l-260-261q-5-5-13-5t-12 5l-260 261q-6 5-6 12t6 13l28 28q5 6 12 6t13-6l219-219 220 219q5 6 13 6t12-6l28-28q6-5 6-13z" ></path></svg>

<svg id="folder-empty" transform="rotate(180)" viewBox="-150 -400 1500 1500"><path fill="currentColor" d="M857 118v393q0 22-15 38t-38 15h-393q-23 0-38 16t-16 38v36q0 22-15 38t-38 15h-179q-22 0-38-15t-16-38v-536q0-22 16-38t38-16h679q22 0 38 16t15 38z m72 393v-393q0-51-37-88t-88-37h-679q-51 0-88 37t-37 88v536q0 51 37 88t88 37h179q51 0 88-37t37-88v-18h375q51 0 88-37t37-88z" ></path></svg>

<svg id="folder-open-empty" transform="rotate(180)" viewBox="-150 -400 1500 1500"><path fill="currentColor" d="M994 331q0 19-30 19h-607q-22 0-48-12t-39-29l-164-203q-11-13-11-22 0-20 30-20h607q23 0 48 13t40 29l164 203q10 12 10 22z m-637 90h429v90q0 22-16 38t-38 15h-321q-23 0-38 16t-16 38v36q0 22-15 38t-38 15h-179q-22 0-38-15t-16-38v-476l143 175q25 30 65 49t78 19z m708-90q0-35-25-67l-165-203q-24-30-65-49t-78-19h-607q-51 0-88 37t-37 88v536q0 51 37 88t88 37h179q51 0 88-37t37-88v-18h303q52 0 88-37t37-88v-90h107q30 0 56-13t37-40q8-17 8-37z" ></path></svg>

<svg id="smile" transform="rotate(180)" viewBox="-150 -400 1500 1500"><path fill="currentColor" d="M633 250q-21-67-77-109t-127-41-128 41-77 109q-4 14 3 27t21 18q14 4 27-2t17-22q14-44 52-72t85-28 84 28 52 72q4 15 18 22t27 2 21-18 2-27z m-276 243q0-30-21-51t-50-21-51 21-21 51 21 50 51 21 50-21 21-50z m286 0q0-30-21-51t-51-21-50 21-21 51 21 50 50 21 51-21 21-50z m143-143q0 73-29 139t-76 114-114 76-138 28-139-28-114-76-76-114-29-139 29-139 76-113 114-77 139-28 138 28 114 77 76 113 29 139z m71 0q0-117-57-215t-156-156-215-58-216 58-155 156-58 215 58 215 155 156 216 58 215-58 156-156 57-215z" ></path></svg>

<svg id="frown" transform="rotate(180)" viewBox="-150 -400 1500 1500"><path fill="currentColor" d="M633 164q4-14-2-27t-21-17-27 2-18 21q-14 45-52 72t-84 28-85-28-52-72q-4-14-17-21t-27-2q-15 4-21 17t-3 27q21 68 77 109t128 41 127-41 77-109z m-276 329q0-30-21-51t-50-21-51 21-21 51 21 50 51 21 50-21 21-50z m286 0q0-30-21-51t-51-21-50 21-21 51 21 50 50 21 51-21 21-50z m143-143q0 73-29 139t-76 114-114 76-138 28-139-28-114-76-76-114-29-139 29-139 76-113 114-77 139-28 138 28 114 77 76 113 29 139z m71 0q0-117-57-215t-156-156-215-58-216 58-155 156-58 215 58 215 155 156 216 58 215-58 156-156 57-215z" ></path></svg>

<svg id="meh" transform="rotate(180)" viewBox="-150 -400 1500 1500"><path fill="currentColor" d="M643 243q0-15-11-25t-25-11h-357q-14 0-25 11t-11 25 11 25 25 11h357q15 0 25-11t11-25z m-286 250q0-30-21-51t-50-21-51 21-21 51 21 50 51 21 50-21 21-50z m286 0q0-30-21-51t-51-21-50 21-21 51 21 50 50 21 51-21 21-50z m143-143q0 73-29 139t-76 114-114 76-138 28-139-28-114-76-76-114-29-139 29-139 76-113 114-77 139-28 138 28 114 77 76 113 29 139z m71 0q0-117-57-215t-156-156-215-58-216 58-155 156-58 215 58 215 155 156 216 58 215-58 156-156 57-215z" ></path></svg>

<svg id="calendar-empty" transform="rotate(180)" viewBox="-150 -400 1500 1500"><path fill="currentColor" d="M71-79h786v572h-786v-572z m215 679v161q0 8-5 13t-13 5h-36q-8 0-13-5t-5-13v-161q0-8 5-13t13-5h36q8 0 13 5t5 13z m428 0v161q0 8-5 13t-13 5h-35q-8 0-13-5t-5-13v-161q0-8 5-13t13-5h35q8 0 13 5t5 13z m215 36v-715q0-29-22-50t-50-21h-786q-29 0-50 21t-21 50v715q0 29 21 50t50 21h72v54q0 37 26 63t63 26h36q37 0 63-26t26-63v-54h214v54q0 37 27 63t63 26h35q37 0 64-26t26-63v-54h71q29 0 50-21t22-50z" ></path></svg>

<svg id="angle-circled-left" transform="rotate(180)" viewBox="-150 -400 1500 1500"><path fill="currentColor" d="M507 72l57 57q11 10 11 25t-11 25l-171 171 171 171q11 11 11 25t-11 26l-57 57q-10 10-25 10t-25-10l-253-254q-11-10-11-25t11-25l253-253q11-11 25-11t25 11z m350 278q0-117-57-215t-156-156-215-58-216 58-155 156-58 215 58 215 155 156 216 58 215-58 156-156 57-215z" ></path></svg>

<svg id="angle-circled-right" transform="rotate(180)" viewBox="-150 -400 1500 1500"><path fill="currentColor" d="M400 72l254 253q10 11 10 25t-10 25l-254 254q-10 10-25 10t-25-10l-57-57q-11-11-11-26t11-25l171-171-171-171q-11-11-11-25t11-25l57-57q11-11 25-11t25 11z m457 278q0-117-57-215t-156-156-215-58-216 58-155 156-58 215 58 215 155 156 216 58 215-58 156-156 57-215z" ></path></svg>

<svg id="angle-circled-up" transform="rotate(180)" viewBox="-150 -400 1500 1500"><path fill="currentColor" d="M650 214l57 57q11 11 11 25t-11 26l-253 253q-11 11-25 11t-25-11l-254-253q-10-11-10-26t10-25l57-57q11-10 25-10t25 10l172 172 171-172q11-10 25-10t25 10z m207 136q0-117-57-215t-156-156-215-58-216 58-155 156-58 215 58 215 155 156 216 58 215-58 156-156 57-215z" ></path></svg>

<svg id="angle-circled-down" transform="rotate(180)" viewBox="-150 -400 1500 1500"><path fill="currentColor" d="M454 125l253 254q11 10 11 25t-11 25l-57 57q-10 10-25 10t-25-10l-171-172-172 172q-10 10-25 10t-25-10l-57-57q-10-11-10-25t10-25l254-254q10-10 25-10t25 10z m403 225q0-117-57-215t-156-156-215-58-216 58-155 156-58 215 58 215 155 156 216 58 215-58 156-156 57-215z" ></path></svg>

<svg id="doc-inv" transform="rotate(180)" viewBox="-150 -400 1500 1500"><path fill="currentColor" d="M571 564v264q13-8 21-16l227-228q8-7 16-20h-264z m-71-18q0-22 16-37t38-16h303v-589q0-23-15-38t-38-16h-750q-23 0-38 16t-16 38v892q0 23 16 38t38 16h446v-304z" ></path></svg>

<svg id="doc-text-inv" transform="rotate(180)" viewBox="-150 -400 1500 1500"><path fill="currentColor" d="M819 584q8-7 16-20h-264v264q13-8 21-16z m-265-91h303v-589q0-23-15-38t-38-16h-750q-23 0-38 16t-16 38v892q0 23 16 38t38 16h446v-304q0-22 16-37t38-16z m89-411v36q0 8-5 13t-13 5h-393q-8 0-13-5t-5-13v-36q0-8 5-13t13-5h393q8 0 13 5t5 13z m0 143v36q0 8-5 13t-13 5h-393q-8 0-13-5t-5-13v-36q0-8 5-13t13-5h393q8 0 13 5t5 13z m0 143v36q0 7-5 12t-13 5h-393q-8 0-13-5t-5-12v-36q0-8 5-13t13-5h393q8 0 13 5t5 13z" ></path></svg>

<svg id="youtube" transform="rotate(180)" viewBox="-150 -400 1500 1500"><path fill="currentColor" d="M542 156v-118q0-37-22-37-13 0-25 12v168q12 12 25 12 22 0 22-37z m189-1v-25h-51v25q0 38 25 38t26-38z m-540 122h60v52h-174v-52h59v-318h55v318z m161-318h50v276h-50v-211q-17-23-32-23-10 0-11 11-1 2-1 20v203h-50v-218q0-28 5-41 7-21 32-21 27 0 57 34v-30z m240 83v110q0 41-5 55-10 31-40 31-28 0-52-30v121h-50v-370h50v27q25-31 52-31 30 0 40 31 5 15 5 56z m188 6v7h-51q0-29-1-34-4-20-22-20-26 0-26 38v49h100v57q0 44-15 65-22 28-59 28-38 0-60-28-15-21-15-65v-96q0-44 16-65 22-29 60-29 40 0 60 30 10 15 12 30 1 5 1 33z m-339 509v117q0 39-24 39t-24-39v-117q0-39 24-39t24 39z m401-419q0-131-14-195-8-33-33-56t-57-25q-102-12-309-12t-310 12q-32 3-57 25t-32 56q-15 62-15 195 0 131 15 195 7 33 32 56t57 26q103 11 310 11t309-11q33-4 58-26t32-56q14-62 14-195z m-557 712h57l-67-223v-151h-56v151q-8 42-34 119-21 57-37 104h60l39-147z m207-186v-97q0-46-16-66-21-29-59-29-37 0-59 29-15 21-15 66v97q0 45 15 66 22 28 59 28 38 0 59-28 16-21 16-66z m187 91v-279h-51v31q-30-35-58-35-25 0-33 21-4 13-4 42v220h51v-205q0-19 0-20 2-12 12-12 15 0 32 24v213h51z" ></path></svg>

<svg id="youtube-play" transform="rotate(180)" viewBox="-150 -400 1500 1500"><path fill="currentColor" d="M397 221l270 139-270 141v-280z m103 481q94 0 181-3t128-5l41-2q0 0 9-1t13-2 13-2 16-5 16-7 17-11 16-15q4-3 9-10t16-33 15-56q4-36 7-76t3-64v-98q1-81-10-162-4-30-14-55t-18-35l-8-9q-7-8-16-15t-17-10-16-7-16-5-13-2-13-2-9-1q-140-11-350-11-115 2-201 4t-111 4l-28 3-20 2q-20 3-30 5t-29 12-31 23q-4 3-9 10t-16 33-15 56q-4 36-7 76t-3 64v98q-1 81 10 162 4 31 14 55t18 35l8 9q8 9 16 15t17 11 16 7 16 5 13 2 13 2 9 1q140 10 350 10z" ></path></svg>

<svg id="instagram" transform="rotate(180)" viewBox="-150 -400 1500 1500"><path fill="currentColor" d="M571 350q0 59-41 101t-101 42-101-42-42-101 42-101 101-42 101 42 41 101z m77 0q0-91-64-156t-155-64-156 64-64 156 64 156 156 64 155-64 64-156z m61 229q0-21-15-36t-37-15-36 15-15 36 15 36 36 15 37-15 15-36z m-280 123q-4 0-43 0t-59 0-54-2-57-5-40-11q-28-11-49-32t-33-49q-6-16-10-40t-6-58-1-53 0-59 0-43 0-43 0-59 1-53 6-58 10-40q12-28 33-49t49-32q16-6 40-11t57-5 54-2 59 0 43 0 42 0 59 0 54 2 58 5 39 11q28 11 50 32t32 49q6 16 10 40t6 58 1 53 0 59 0 43 0 43 0 59-1 53-6 58-10 40q-11 28-32 49t-50 32q-16 6-39 11t-58 5-54 2-59 0-42 0z m428-352q0-128-3-177-5-116-69-180t-179-69q-50-3-177-3t-177 3q-116 6-180 69t-69 180q-3 49-3 177t3 177q5 116 69 180t180 69q49 3 177 3t177-3q116-6 179-69t69-180q3-49 3-177z" ></path></svg>

<svg id="file-pdf" transform="rotate(180)" viewBox="-150 -400 1500 1500"><path fill="currentColor" d="M819 638q16-16 27-42t11-50v-642q0-23-15-38t-38-16h-750q-23 0-38 16t-16 38v892q0 23 16 38t38 16h500q22 0 49-11t42-27z m-248 136v-210h210q-5 17-12 23l-175 175q-6 7-23 12z m215-853v572h-232q-23 0-38 16t-16 37v233h-429v-858h715z m-287 331q18-14 47-31 33 4 65 4 82 0 99-27 9-13 1-29 0-1-1-1l-1-2v0q-3-21-39-21-27 0-64 11t-73 29q-123-13-219-46-85-146-135-146-8 0-15 4l-14 7q0 0-3 2-6 6-4 20 5 23 32 51t73 54q8 5 13-3 1-1 1-2 29 47 60 110 38 76 58 146-13 46-17 89t4 71q6 22 23 22h12q13 0 20-8 10-12 5-38-1-3-2-4 0-2 0-5v-17q-1-68-8-107 31-91 82-133z m-321-229q29 13 76 88-29-22-49-47t-27-41z m222 513q-9-23-2-73 1 4 4 24 0 2 4 24 1 3 3 5-1 0-1 1-1 1-1 2 0 12-7 20 0-1 0-1v-2z m-70-368q76 30 159 45-1 0-7 5t-9 8q-43 37-71 98-15-48-46-110-17-31-26-46z m361 9q-13 13-78 13 42-16 69-16 8 0 10 1 0 0-1 2z" ></path></svg>

<svg id="file-word" transform="rotate(180)" viewBox="-150 -400 1500 1500"><path fill="currentColor" d="M819 638q16-16 27-42t11-50v-642q0-23-15-38t-38-16h-750q-23 0-38 16t-16 38v892q0 23 16 38t38 16h500q22 0 49-11t42-27z m-248 136v-210h210q-5 17-12 23l-175 175q-6 7-23 12z m215-853v572h-232q-23 0-38 16t-16 37v233h-429v-858h715z m-656 500v-59h39l92-369h88l72 271q4 11 5 25 2 9 2 14h2l1-14q1-1 2-11t3-14l72-271h89l91 369h39v59h-167v-59h50l-55-245q-3-11-4-25l-1-12h-3q0 2 0 4t-1 4 0 4q-1 2-2 11t-3 14l-81 304h-63l-81-304q-1-5-2-13t-2-12l-2-12h-2l-2 12q-1 14-3 25l-56 245h50v59h-167z" ></path></svg>

<svg id="file-excel" transform="rotate(180)" viewBox="-150 -400 1500 1500"><path fill="currentColor" d="M819 638q16-16 27-42t11-50v-642q0-23-15-38t-38-16h-750q-23 0-38 16t-16 38v892q0 23 16 38t38 16h500q22 0 49-11t42-27z m-248 136v-210h210q-5 17-12 23l-175 175q-6 7-23 12z m215-853v572h-232q-23 0-38 16t-16 37v233h-429v-858h715z m-547 131v-59h157v59h-42l58 90q3 4 5 9t5 8 2 2h1q0-2 3-6 1-2 2-4t3-4 4-5l60-90h-43v-59h163v59h-38l-107 152 108 158h38v59h-156v-59h41l-57-89q-2-4-6-9t-5-8l-1-1h-1q0 2-3 5-3 6-9 13l-59 89h42v59h-162v-59h38l106-152-109-158h-38z" ></path></svg>

<svg id="file-powerpoint" transform="rotate(180)" viewBox="-150 -400 1500 1500"><path fill="currentColor" d="M819 638q16-16 27-42t11-50v-642q0-23-15-38t-38-16h-750q-23 0-38 16t-16 38v892q0 23 16 38t38 16h500q22 0 49-11t42-27z m-248 136v-210h210q-5 17-12 23l-175 175q-6 7-23 12z m215-853v572h-232q-23 0-38 16t-16 37v233h-429v-858h715z m-554 131v-59h183v59h-52v93h76q43 0 66 9 37 12 60 48t22 82q0 45-21 78t-56 49q-27 10-72 10h-206v-59h52v-310h-52z m197 156h-66v150h67q29 0 46-10 31-19 31-64 0-50-34-67-18-9-44-9z" ></path></svg>

<svg id="file-image" transform="rotate(180)" viewBox="-150 -400 1500 1500"><path fill="currentColor" d="M819 638q16-16 27-42t11-50v-642q0-23-15-38t-38-16h-750q-23 0-38 16t-16 38v892q0 23 16 38t38 16h500q22 0 49-11t42-27z m-248 136v-210h210q-5 17-12 23l-175 175q-6 7-23 12z m215-853v572h-232q-23 0-38 16t-16 37v233h-429v-858h715z m-72 250v-178h-571v107l107 107 71-71 215 214z m-464 108q-45 0-76 31t-31 76 31 76 76 31 76-31 31-76-31-76-76-31z" ></path></svg>

<svg id="file-archive" transform="rotate(180)" viewBox="-150 -400 1500 1500"><path fill="currentColor" d="M357 636v71h-71v-71h71z m72-72v72h-72v-72h72z m-72-71v71h-71v-71h71z m72-72v72h-72v-72h72z m390 217q16-16 27-42t11-50v-642q0-23-15-38t-38-16h-750q-23 0-38 16t-16 38v892q0 23 16 38t38 16h500q22 0 49-11t42-27z m-248 136v-210h210q-5 17-12 23l-175 175q-6 7-23 12z m215-853v572h-232q-23 0-38 16t-16 37v233h-71v-72h-72v72h-286v-858h715z m-350 403l60-195q4-15 4-29 0-46-40-77t-103-30-102 30-41 77q0 14 5 29 12 35 67 221v71h71v-71h44q13 0 22-7t13-19z m-79-260q30 0 51 11t21 25-21 25-51 11-50-11-21-25 21-25 50-11z" ></path></svg>

<svg id="file-audio" transform="rotate(180)" viewBox="-150 -400 1500 1500"><path fill="currentColor" d="M819 638q16-16 27-42t11-50v-642q0-23-15-38t-38-16h-750q-23 0-38 16t-16 38v892q0 23 16 38t38 16h500q22 0 49-11t42-27z m-248 136v-210h210q-5 17-12 23l-175 175q-6 7-23 12z m215-853v572h-232q-23 0-38 16t-16 37v233h-429v-858h715z m-440 455q11-5 11-17v-304q0-12-11-16-4-1-7-1-6 0-12 5l-93 93h-73q-8 0-13 5t-5 13v107q0 8 5 13t13 5h73l93 93q8 8 19 4z m233-385q17 0 28 14 72 88 72 202t-72 203q-9 11-24 13t-27-8q-11-9-13-24t8-26q56-69 56-158t-56-157q-9-12-8-27t13-23q10-9 23-9z m-118 83q15 0 26 11 49 52 49 122t-49 122q-10 11-25 12t-26-10-11-25 10-26q29-32 29-73t-29-73q-10-11-10-26t11-25q12-9 25-9z" ></path></svg>

<svg id="file-video" transform="rotate(180)" viewBox="-150 -400 1500 1500"><path fill="currentColor" d="M819 638q16-16 27-42t11-50v-642q0-23-15-38t-38-16h-750q-23 0-38 16t-16 38v892q0 23 16 38t38 16h500q22 0 49-11t42-27z m-248 136v-210h210q-5 17-12 23l-175 175q-6 7-23 12z m215-853v572h-232q-23 0-38 16t-16 37v233h-429v-858h715z m-357 500q29 0 50-21t21-50v-214q0-29-21-50t-50-22h-215q-29 0-50 22t-21 50v214q0 29 21 50t50 21h215z m274-1q11-4 11-16v-322q0-12-11-17-4-1-7-1-7 0-12 5l-148 149v50l148 148q5 5 12 5 3 0 7-1z" ></path></svg>

<svg id="file-code" transform="rotate(180)" viewBox="-150 -400 1500 1500"><path fill="currentColor" d="M819 638q16-16 27-42t11-50v-642q0-23-15-38t-38-16h-750q-23 0-38 16t-16 38v892q0 23 16 38t38 16h500q22 0 49-11t42-27z m-248 136v-210h210q-5 17-12 23l-175 175q-6 7-23 12z m215-853v572h-232q-23 0-38 16t-16 37v233h-429v-858h715z m-518 500q4 7 12 7t13-3l28-21q7-5 7-12t-3-13l-102-136 102-136q4-6 3-13t-7-12l-28-21q-6-4-13-4t-12 7l-126 168q-8 11 0 22z m447-167q8-11 0-22l-126-168q-4-6-11-7t-14 4l-28 21q-6 5-7 12t3 13l102 136-102 136q-4 6-3 13t7 12l28 21q6 4 14 3t11-7z m-346-258q-7 1-11 8t-3 13l77 464q1 7 7 11t14 3l35-5q7-2 11-8t3-13l-77-464q-1-7-7-11t-13-3z" ></path></svg>

<svg id="bell-off" transform="rotate(180)" viewBox="-150 -400 1500 1500"><path fill="currentColor" d="M869 375q35-199 167-311 0-29-21-50t-51-21h-250q0-59-42-101t-101-42-100 42-42 100z m-298-480q9 0 9 9t-9 8q-32 0-56 24t-24 57q0 9-9 9t-9-9q0-41 29-70t69-28z m560 893q4-6 4-14t-6-12l-1045-905q-5-5-13-4t-12 6l-47 53q-4 6-4 14t6 12l104 90q-11 17-11 36 28 24 51 49t47 67 42 89 28 115 11 145q0 84 65 157t171 89q-4 10-4 21 0 23 16 38t37 16 38-16 16-38q0-11-4-21 69-10 122-46t82-88l234 202q5 5 13 4t12-6z" ></path></svg>

<svg id="bell-off-empty" transform="rotate(180)" viewBox="-150 -400 1500 1500"><path fill="currentColor" d="M580-96q0 8-9 8-32 0-56 24t-24 57q0 9-9 9t-9-9q0-41 29-70t69-28q9 0 9 9z m-299 265l489 424q-23 49-74 82t-125 32q-51 0-94-17t-68-45-38-58-14-58q0-215-76-360z m755-105q0-29-21-50t-51-21h-250q0-59-42-101t-101-42-100 42-42 100l83 72h422q-92 105-126 256l61 55q35-199 167-311z m48 777l47-53q4-6 4-14t-6-12l-1045-905q-5-5-13-4t-12 6l-47 53q-4 6-4 14t6 12l104 90q-11 17-11 36 28 24 51 49t47 67 42 89 28 115 11 145q0 84 65 157t171 89q-4 10-4 21 0 23 16 38t37 16 38-16 16-38q0-11-4-21 69-10 122-46t82-88l234 202q5 5 13 4t12-6z" ></path></svg>

<svg id="trash" transform="rotate(180)" viewBox="-150 -400 1500 1500"><path fill="currentColor" d="M286 82v393q0 8-5 13t-13 5h-36q-8 0-13-5t-5-13v-393q0-8 5-13t13-5h36q8 0 13 5t5 13z m143 0v393q0 8-5 13t-13 5h-36q-8 0-13-5t-5-13v-393q0-8 5-13t13-5h36q8 0 13 5t5 13z m142 0v393q0 8-5 13t-12 5h-36q-8 0-13-5t-5-13v-393q0-8 5-13t13-5h36q7 0 12 5t5 13z m-303 554h250l-27 65q-4 5-9 6h-177q-6-1-10-6z m518-18v-36q0-8-5-13t-13-5h-54v-529q0-46-26-80t-63-34h-464q-37 0-63 33t-27 79v531h-53q-8 0-13 5t-5 13v36q0 8 5 13t13 5h172l39 93q9 21 31 35t44 15h178q23 0 44-15t30-35l39-93h173q8 0 13-5t5-13z" ></path></svg>

<svg id="chart-area" transform="rotate(180)" viewBox="-150 -400 1500 1500"><path fill="currentColor" d="M1143-7v-72h-1143v858h71v-786h1072z m-214 571l142-500h-928v322l250 321 321-321z" ></path></svg>

<svg id="chart-pie" transform="rotate(180)" viewBox="-150 -400 1500 1500"><path fill="currentColor" d="M429 353l304-304q-59-61-138-94t-166-34q-117 0-216 58t-155 156-58 215 58 215 155 156 216 58v-426z m104-3h431q0-88-33-167t-94-138z m396 71h-429v429q117 0 215-57t156-156 58-216z" ></path></svg>

<svg id="chart-line" transform="rotate(180)" viewBox="-150 -400 1500 1500"><path fill="currentColor" d="M1143-7v-72h-1143v858h71v-786h1072z m-72 696v-242q0-12-10-17t-20 4l-68 68-353-353q-6-6-13-6t-13 6l-130 130-232-233-107 108 327 326q5 6 12 6t13-6l130-130 259 259-67 68q-9 8-5 19t17 11h243q7 0 12-5t5-13z" ></path></svg>

<svg id="toggle-off" transform="rotate(180)" viewBox="-150 -400 1500 1500"><path fill="currentColor" d="M643 350q0 58-23 111t-61 91-91 61-111 23-111-23-91-61-61-91-23-111 23-111 61-91 91-61 111-23 111 23 91 61 61 91 23 111z m428 0q0 58-22 111t-61 91-91 61-111 23h-216q67-50 106-125t38-161-38-161-106-125h216q58 0 111 23t91 61 61 91 22 111z m72 0q0-72-29-139t-76-113-114-77-138-28h-429q-72 0-138 28t-114 77-76 113-29 139 29 139 76 114 114 76 138 28h429q72 0 138-28t114-76 76-114 29-139z" ></path></svg>

<svg id="toggle-on" transform="rotate(180)" viewBox="-150 -400 1500 1500"><path fill="currentColor" d="M0 350q0 73 29 139t76 114 114 76 138 28h429q72 0 138-28t114-76 76-114 29-139-29-139-76-113-114-77-138-28h-429q-72 0-138 28t-114 77-76 113-29 139z m786-286q58 0 111 23t91 61 61 91 22 111-22 111-61 91-91 61-111 23-111-23-91-61-61-91-23-111 23-111 61-91 91-61 111-23z" ></path></svg>

<svg id="hourglass-2" transform="rotate(180)" viewBox="-150 -400 1500 1500"><path fill="currentColor" d="M786 779q0-146-60-258t-148-171q89-59 148-171t60-258h53q8 0 13-5t5-12v-36q0-8-5-13t-13-5h-821q-8 0-13 5t-5 13v36q0 7 5 12t13 5h53q0 146 60 258t149 171q-90 59-149 171t-60 258h-53q-8 0-13 5t-5 12v36q0 8 5 13t13 5h821q8 0 13-5t5-13v-36q0-7-5-12t-13-5h-53z m-72 0h-571q0-115 47-215h477q47 100 47 215z m-31-679q-31 79-82 135t-108 79h-129q-57-23-108-79t-81-135h508z" ></path></svg>

<svg id="hand-pointer-o" transform="rotate(180)" viewBox="-150 -400 1500 1500"><path fill="currentColor" d="M357 779q-29 0-50-21t-21-51v-500l-84 113q-23 30-60 30-29 0-50-21t-21-50q0-24 15-43l214-286q21-29 57-29h401q12 0 22 8t12 19l52 206q13 53 13 108v121q0 23-15 40t-38 16-38-15-16-38h-18v34q0 27-18 45t-44 19q-26 0-44-18t-19-45v-35h-18v50q0 31-20 53t-51 22q-30 0-51-21t-21-51v-53h-17v318q0 31-21 53t-51 22z m0 71q60 0 101-43t42-103v-123q12 1 18 1 55 0 96-38 27 11 56 11 63 0 102-48 15 4 32 4 52 0 88-38t37-90v-121q0-65-16-126l-51-205q-9-36-38-58t-66-23h-401q-33 0-64 15t-50 42l-214 286q-29 38-29 86 0 58 42 100t100 42q39 0 72-19v305q0 59 42 101t101 42z m72-786v215h-18v-215h18z m142 0v215h-17v-215h17z m143 0v215h-18v-215h18z" ></path></svg>

<svg id="commenting" transform="rotate(180)" viewBox="-150 -400 1500 1500"><path fill="currentColor" d="M357 350q0 30-21 51t-50 20-51-20-21-51 21-50 51-21 50 21 21 50z m214 0q0 30-20 51t-51 20-50-20-21-51 21-50 50-21 51 21 20 50z m215 0q0 30-21 51t-51 20-50-20-21-51 21-50 50-21 51 21 21 50z m214 0q0-97-67-179t-182-130-251-48q-61 0-118 10-96-97-242-128-29-6-48-7-7-1-13 3t-7 10q-2 9 11 21 3 3 13 12t15 13 13 14 13 18 11 20 12 27 8 32 7 41q-82 50-128 121t-47 150q0 97 67 179t182 130 251 48 251-48 182-130 67-179z" ></path></svg>

<svg id="commenting-o" transform="rotate(180)" viewBox="-150 -400 1500 1500"><path fill="currentColor" d="M357 350q0-30-21-50t-50-21-51 21-21 50 21 51 51 20 50-20 21-51z m214 0q0-30-20-50t-51-21-50 21-21 50 21 51 50 20 51-20 20-51z m215 0q0-30-21-50t-51-21-50 21-21 50 21 51 50 20 51-20 21-51z m-286 286q-114 0-213-39t-157-105-59-142q0-62 40-119t113-98l48-28-15-53q-13-51-39-97 85 36 154 96l24 21 32-3q38-5 72-5 114 0 213 39t157 105 59 142-59 142-157 105-213 39z m500-286q0-97-67-179t-182-130-251-48q-39 0-81 4-110-97-257-135-27-8-63-12h-3q-8 0-15 6t-9 15v1q-2 2 0 6t1 6 2 5l4 5t4 5 4 5q4 5 17 19t20 22 17 22 18 28 15 33 15 42q-88 50-138 123t-51 157q0 73 40 139t106 114 160 76 194 28 194-28 160-76 106-114 40-139z" ></path></svg>

<svg id="user-circle-o" transform="rotate(180)" viewBox="-150 -400 1500 1500"><path fill="currentColor" d="M500 850q102 0 194-40t160-106 106-160 40-194q0-101-39-194t-107-159-159-107-195-40-195 40-159 106-106 160-40 194 40 194 106 160 160 106 194 40z m345-754q84 115 84 254 0 87-34 166t-92 137-137 92-166 34-166-34-137-92-91-137-35-166q0-139 84-254 36 183 170 183 73-72 175-72t175 72q134 0 170-183z m-131 361q0 89-62 152t-152 62-151-62-63-152 63-151 151-63 152 63 62 151z" ></path></svg>
</defs>
</svg>